<svg xmlns="http://www.w3.org/2000/svg" xmlns:xlink="http://www.w3.org/1999/xlink" width="684.525" height="548.781" viewBox="0 0 513.394 411.586" xmlns:v="https://vecta.io/nano"><style><![CDATA[.B{stroke-linejoin:round}.C{stroke-miterlimit:10}.D{stroke:rgb(0%,0%,0%)}.E{stroke-width:.1}.F{fill:rgb(0%,0%,100%)}.G{fill:none}.H{overflow:visible}.I{stroke:none}.J{fill:rgb(0%,0%,0%)}.K{stroke-width:.5}.L{stroke-linecap:square}.M{stroke:rgb(100%,0%,0%)}]]></style><defs><symbol id="A" class="H"><path d="M5.586-3.953v-6.207L1.602-3.953h3.984M9.023 0H3.71v-.832h1.875v-2.29h-5.1v-.848l5.105-7.902h1.55v7.918h2.223v.832H7.152v2.29h1.87V0" class="I"/></symbol><symbol id="B" class="H"><path d="M1.55-11.168c.61-.223 1.184-.398 1.746-.527.56-.113 1.086-.176 1.582-.176 1.137 0 2.03.254 2.672.734.64.496.96 1.184.96 2.047 0 .707-.223 1.297-.672 1.762-.45.48-1.07.8-1.87.96.96.145 1.695.496 2.223 1.055s.8 1.28.8 2.16c0 1.1-.367 1.922-1.105 2.496S6.113.207 4.734.207A8.23 8.23 0 0 1 2.945.016C2.367-.098 1.793-.29 1.215-.56v-2.273h.883c.047.77.3 1.328.75 1.71s1.1.578 1.922.578c.797 0 1.422-.227 1.887-.687.45-.465.688-1.105.688-1.906 0-.9-.238-1.598-.72-2.078-.48-.465-1.168-.707-2.082-.707H3.81v-.797h.383c.914 0 1.602-.176 2.047-.562s.69-.94.69-1.71c0-.672-.195-1.2-.562-1.566-.383-.352-.9-.547-1.613-.547s-1.266.176-1.648.512-.61.832-.672 1.473H1.55v-2.047" class="I"/></symbol><symbol id="C" class="H"><path d="M2.047-8.88h-.88v-2.082a8.57 8.57 0 0 1 1.68-.672c.56-.16 1.12-.238 1.664-.238 1.215 0 2.176.305 2.88.88.707.594 1.06 1.39 1.06 2.398 0 1.152-.8 2.516-2.402 4.098l-.27.273-2.945 2.94h4.863V-2.72h.914V0H1.1v-.848l3.535-3.535c.766-.77 1.328-1.488 1.664-2.145a4.48 4.48 0 0 0 .512-2.066c0-.78-.207-1.39-.625-1.84s-.977-.672-1.68-.672c-.754 0-1.328.195-1.727.563-.418.367-.656.926-.723 1.664" class="I"/></symbol><symbol id="D" class="H"><path d="M2.273 0v-.832h2.03v-9.695l-2.352 1.52v-1.023L4.8-11.87h1.07v11.04h2.03V0h-5.63" class="I"/></symbol><symbol id="E" class="H"><path d="M5.1-.543c.797 0 1.39-.434 1.79-1.312.387-.863.594-2.19.594-3.97 0-1.762-.207-3.086-.594-3.97-.398-.863-.992-1.312-1.79-1.312s-1.4.45-1.793 1.313c-.402.883-.594 2.207-.594 3.97 0 1.777.19 3.105.594 3.97.383.88.992 1.313 1.793 1.313m0 .75a3.37 3.37 0 0 1-2.977-1.582c-.707-1.06-1.06-2.527-1.06-4.45 0-1.902.352-3.39 1.06-4.45S3.81-11.87 5.1-11.87c1.262 0 2.254.543 2.957 1.598S9.12-7.727 9.12-5.824c0 1.922-.367 3.39-1.074 4.45A3.36 3.36 0 0 1 5.09.207" class="I"/></symbol><symbol id="F" class="H"><path d="M1.504-.816c0-.29.098-.527.29-.734.19-.19.445-.305.75-.305.29 0 .527.113.738.305a1.05 1.05 0 0 1 .305.734 1.04 1.04 0 0 1-.305.738 1.05 1.05 0 0 1-.738.285c-.305 0-.56-.094-.75-.285a1 1 0 0 1-.289-.738" class="I"/></symbol><symbol id="G" class="H"><path d="M5.23-.543c.738 0 1.297-.258 1.7-.8.383-.543.6-1.312.6-2.336 0-1.008-.207-1.777-.6-2.32-.402-.543-.96-.816-1.7-.816-.75 0-1.328.273-1.71.785-.383.527-.574 1.277-.574 2.254 0 1.043.19 1.84.6 2.402.387.56.96.832 1.695.832m-2.543-5.87c.352-.387.754-.69 1.2-.883s.945-.29 1.52-.29c1.152 0 2.082.355 2.754 1.06S9.168-4.88 9.168-3.68c0 1.184-.367 2.13-1.1 2.832-.734.703-1.695 1.055-2.9 1.055-1.313 0-2.336-.48-3.04-1.453s-1.06-2.387-1.06-4.21c0-2.03.418-3.613 1.25-4.734s2.016-1.68 3.55-1.68c.418 0 .848.047 1.297.11a10.11 10.11 0 0 1 1.391.355v1.918h-.88c-.062-.512-.273-.9-.61-1.2-.336-.273-.78-.418-1.36-.418-1.023 0-1.773.387-2.27 1.152S2.688-8 2.688-6.414" class="I"/></symbol><symbol id="H" class="H"><path d="M7.457-3.184c0-.832-.21-1.473-.625-1.938S5.824-5.824 5.1-5.824c-.754 0-1.328.238-1.746.703S2.72-4.016 2.72-3.184s.21 1.488.625 1.953.992.688 1.746.688c.734 0 1.324-.227 1.742-.687s.625-1.12.625-1.953m-.32-5.664c0-.703-.19-1.266-.543-1.664-.37-.383-.867-.594-1.504-.594s-1.152.21-1.504.594c-.37.398-.547.96-.547 1.664 0 .72.176 1.28.547 1.664.352.398.863.6 1.504.6s1.133-.19 1.504-.6c.352-.383.543-.945.543-1.664m-.848 2.64c.88.13 1.566.445 2.062.977.496.543.754 1.215.754 2.047 0 1.086-.352 1.937-1.043 2.512-.703.594-1.695.88-2.973.88-1.297 0-2.29-.285-2.977-.88-.707-.574-1.043-1.426-1.043-2.512 0-.832.242-1.504.738-2.047.496-.53 1.184-.848 2.078-.977-.797-.13-1.39-.434-1.81-.898-.414-.445-.62-1.04-.62-1.742 0-.93.32-1.664.957-2.207s1.54-.816 2.676-.816c1.117 0 2.016.27 2.652.816s.977 1.277.977 2.207c0 .703-.223 1.297-.64 1.742-.414.465-1.023.77-1.79.898" class="I"/></symbol><symbol id="I" class="H"><path d="M1.56-.578c.242.2.562.277 1 .277.402 0 .78-.2 1.102-.598s.54-.84.66-1.32l.898-3.543c.14-.637.223-1.078.223-1.316 0-.32-.102-.62-.28-.863a.99.99 0 0 0-.781-.379c-.418 0-.82.14-1.18.398-.38.28-.7.62-.937 1.023a4.08 4.08 0 0 0-.543 1.219c-.04.078-.078.12-.16.12H1.32c-.12 0-.16-.062-.16-.18V-5.8c.12-.48.34-.96.66-1.437s.7-.863 1.16-1.16a2.64 2.64 0 0 1 1.441-.441 2.39 2.39 0 0 1 1.316.398c.402.262.684.62.84 1.063.223-.402.5-.762.863-1.043a1.86 1.86 0 0 1 1.18-.418c.277 0 .578.06.88.16a1.83 1.83 0 0 1 .738.461c.184.2.28.457.28.777a1.29 1.29 0 0 1-.34.883 1.08 1.08 0 0 1-.82.359c-.22 0-.398-.062-.54-.2-.16-.14-.22-.32-.22-.523a1.04 1.04 0 0 1 .277-.738c.2-.2.422-.34.7-.38-.238-.18-.578-.28-1-.28-.437 0-.797.2-1.117.602a3.42 3.42 0 0 0-.66 1.32l-.88 3.54c-.16.54-.223.98-.223 1.32s.082.64.28.88.46.36.78.36c.617 0 1.18-.258 1.66-.82s.816-1.16.977-1.82c.023-.078.082-.117.16-.117H9.8c.04 0 .078.02.12.06s.06.078.06.12c0 .02-.02.04-.02.06A4.47 4.47 0 0 1 8.762-.719C8.16-.102 7.48.2 6.72.2c-.5 0-.937-.14-1.34-.38s-.66-.602-.82-1.06c-.22.398-.52.738-.88 1.02S2.922.2 2.52.2c-.3 0-.598-.06-.898-.14a1.46 1.46 0 0 1-.723-.437C.7-.578.62-.86.62-1.18a1.26 1.26 0 0 1 .32-.859 1.03 1.03 0 0 1 .82-.383c.2 0 .38.082.54.203a.67.67 0 0 1 .238.52c0 .277-.098.54-.277.738-.203.2-.422.34-.703.383" class="I"/></symbol><symbol id="J" class="H"><path d="M3.86.48c0 .12-.098.18-.258.18-.3-.04-.44-.14-.44-.262 0-.398-.04-.68-.12-.84S2.78-.738 2.48-.84L-6.5-3.102c-.238-.078-.56-.137-.96-.137-.56 0-.86.2-.86.578 0 .422.262.738.762.94a13.37 13.37 0 0 0 1.879.578c.078 0 .12.063.12.16v.242c0 .04-.02.06-.062.098s-.098.063-.14.063L-7.238-1C-7.64-1.12-8-1.34-8.34-1.62c-.32-.277-.5-.617-.5-1.06s.14-.84.398-1.2c.262-.34.602-.562 1.043-.66a5.38 5.38 0 0 1-1.043-1.199C-8.7-6.18-8.84-6.64-8.84-7.12c0-.56.16-1.04.46-1.457a2.81 2.81 0 0 1 1.18-.922 4.04 4.04 0 0 1 1.559-.32c.86 0 1.742.22 2.66.66A6.51 6.51 0 0 1-.699-7.379C-.102-6.62.2-5.82.2-4.96c0 .402-.12.742-.32 1.062s-.5.578-.86.738l3.54.898.34.063c.16 0 .262-.44.262-1.32 0-.12.078-.2.262-.2.156.04.277.078.34.117s.098.102.098.223V.48M-.3-4.98c0-.46-.18-.88-.56-1.28s-.82-.72-1.3-.977c-.36-.16-.78-.34-1.3-.5l-1.66-.422c-.578-.12-1.04-.18-1.398-.18-.3 0-.582.04-.86.12-.262.078-.48.22-.66.398-.18.2-.28.44-.28.742 0 .5.18.957.52 1.398.36.44.78.82 1.3 1.16h.06l4.422 1.098c.48-.078.898-.258 1.22-.52.34-.258.5-.598.5-1.04" class="I"/></symbol><symbol id="K" class="H"><path d="M-.578-1.56c.2-.242.277-.562.277-1 0-.402-.2-.78-.598-1.102s-.84-.54-1.32-.66l-3.543-.898c-.637-.14-1.078-.223-1.316-.223-.32 0-.62.102-.863.28a.99.99 0 0 0-.379.781c0 .418.14.82.398 1.18.28.38.62.7 1.023.938a4.08 4.08 0 0 0 1.219.543c.078.04.12.078.12.16v.238c0 .12-.062.16-.18.16H-5.8c-.48-.12-.96-.34-1.437-.66s-.863-.7-1.16-1.16a2.64 2.64 0 0 1-.441-1.441 2.39 2.39 0 0 1 .398-1.316c.262-.402.62-.684 1.063-.84-.402-.223-.762-.5-1.043-.863a1.86 1.86 0 0 1-.418-1.18c0-.277.06-.578.16-.88a1.83 1.83 0 0 1 .461-.738c.2-.184.457-.28.777-.28a1.29 1.29 0 0 1 .883.34 1.08 1.08 0 0 1 .359.82c0 .22-.062.398-.2.54-.14.16-.32.22-.523.22a1.04 1.04 0 0 1-.738-.277c-.2-.2-.34-.422-.38-.7-.18.238-.28.578-.28 1 0 .438.2.797.602 1.117a3.42 3.42 0 0 0 1.32.66l3.54.88c.54.16.98.223 1.32.223s.64-.082.88-.28.36-.46.36-.78c0-.617-.258-1.18-.82-1.66s-1.16-.816-1.82-.977c-.078-.023-.117-.082-.117-.16V-9.8c0-.04.02-.078.06-.12s.078-.06.12-.06c.02 0 .04.02.06.02A4.47 4.47 0 0 1-.719-8.762C-.102-8.16.2-7.48.2-6.72c0 .5-.14.938-.38 1.34s-.602.66-1.06.82c.398.22.738.52 1.02.88S.2-2.922.2-2.52c0 .3-.06.598-.14.898a1.46 1.46 0 0 1-.437.723c-.2.2-.48.277-.8.277a1.26 1.26 0 0 1-.859-.32 1.03 1.03 0 0 1-.383-.82c0-.2.082-.38.203-.54a.67.67 0 0 1 .52-.238c.277 0 .54.098.738.277.2.203.34.422.383.703" class="I"/></symbol><symbol id="L" class="H"><path d="M4.94-6.2C4.34-5.44 3.68-4.8 2.922-4.28 2.16-3.738 1.34-3.3.5-2.96a12.93 12.93 0 0 1-2.68.762c-.922.18-1.86.258-2.82.258S-6.898-2.02-7.84-2.2c-.922-.16-1.82-.422-2.7-.78-.86-.34-1.68-.78-2.44-1.32a9.52 9.52 0 0 1-1.98-1.898c-.02 0-.04-.02-.04-.102v-.18c0-.04.02-.06.06-.098s.082-.062.12-.062c.06 0 .102.02.12.04.64.66 1.34 1.203 2.06 1.64s1.5.78 2.32 1.04c.84.262 1.68.44 2.56.563s1.8.18 2.762.18c4.238 0 7.44-1.12 9.64-3.398.04-.043.078-.062.16-.062.04 0 .078.02.12.063s.06.06.06.098v.18c0 .082-.02.102-.04.102" class="I"/></symbol><symbol id="M" class="H"><path d="M4.98-1.3c0 .12-.06.18-.18.18-.062 0-.102 0-.12-.04C2.44-3.44-.762-4.578-5-4.578s-7.46 1.137-9.66 3.38c-.02.06-.078.078-.16.078-.04 0-.078-.02-.12-.06S-15-1.262-15-1.3v-.18c0-.04.02-.06.04-.098.762-.96 1.68-1.762 2.762-2.402s2.238-1.098 3.46-1.398A16.53 16.53 0 0 1-5-5.82a16.2 16.2 0 0 1 2.801.242c.918.156 1.8.418 2.68.758.88.36 1.68.8 2.44 1.32.758.54 1.418 1.18 2.02 1.922.02.04.04.06.04.098v.18" class="I"/></symbol><symbol id="N" class="H"><path d="M-.46 3.707c-.113 0-.172-.098-.172-.25.04-.29.133-.422.25-.422.383 0 .652-.04.805-.117s.29-.25.383-.54l2.172-8.617c.078-.23.133-.54.133-.922 0-.54-.19-.828-.555-.828-.402 0-.71.25-.902.73s-.387 1.074-.56 1.805c0 .078-.06.117-.152.117H.71c-.04 0-.06-.02-.098-.06S.56-5.492.56-5.53L.96-6.95c.113-.387.324-.73.594-1.06.27-.305.598-.48 1.02-.48s.805.137 1.152.387a1.69 1.69 0 0 1 .633.996 5.13 5.13 0 0 1 1.152-.996c.422-.25.863-.387 1.324-.387a2.35 2.35 0 0 1 1.402.445c.383.285.69.672.883 1.133s.305.957.305 1.496c0 .824-.21 1.672-.633 2.555A6.22 6.22 0 0 1 7.086-.672c-.73.574-1.5.863-2.324.863-.383 0-.71-.113-1.02-.305a1.88 1.88 0 0 1-.707-.828l-.867 3.398-.055.328c0 .152.422.25 1.266.25.117 0 .19.074.19.246-.04.156-.074.27-.113.328s-.098.098-.21.098H-.46M4.78-.29c.44 0 .844-.172 1.227-.535a4.96 4.96 0 0 0 .941-1.25 10.12 10.12 0 0 0 .48-1.246c.156-.5.29-1.02.402-1.594.117-.56.176-1 .176-1.344 0-.29-.04-.56-.117-.828-.078-.25-.21-.46-.383-.633a1.02 1.02 0 0 0-.711-.27c-.48 0-.922.176-1.344.5a5.39 5.39 0 0 0-1.113 1.25v.055L3.28-1.937c.078.46.25.863.5 1.168.25.328.578.48 1 .48" class="I"/></symbol><symbol id="O" class="H"><path d="M1.496-.56c.23.195.54.27.96.27.383 0 .75-.19 1.055-.574a3.3 3.3 0 0 0 .637-1.27l.863-3.398.21-1.266a1.37 1.37 0 0 0-.27-.824c-.19-.23-.44-.367-.75-.367-.402 0-.785.137-1.133.387a3.36 3.36 0 0 0-.902.977c-.246.387-.422.79-.516 1.172-.04.078-.078.117-.156.117h-.23c-.113 0-.152-.06-.152-.176v-.055c.117-.46.328-.922.633-1.383s.672-.828 1.113-1.113c.422-.27.883-.426 1.383-.426a2.3 2.3 0 0 1 1.27.387 2 2 0 0 1 .805 1.016c.21-.383.48-.727.824-.996s.71-.406 1.133-.406c.27 0 .56.06.848.156s.516.25.71.44c.172.19.266.44.266.75 0 .324-.113.613-.324.844s-.48.344-.79.344c-.21 0-.383-.055-.516-.19-.156-.133-.21-.31-.21-.5a1.01 1.01 0 0 1 .266-.711c.195-.19.406-.324.672-.363-.23-.172-.555-.27-.957-.27-.426 0-.77.19-1.078.578a3.33 3.33 0 0 0-.633 1.266l-.844 3.398c-.152.52-.21.94-.21 1.27s.074.613.27.844.44.344.746.344c.598 0 1.133-.25 1.594-.785s.79-1.113.94-1.75c.02-.074.078-.113.152-.113h.23c.04 0 .078.02.117.06s.06.074.06.113c0 .02-.02.04-.02.06-.19.77-.578 1.44-1.152 2.016-.578.594-1.23.883-1.957.883-.48 0-.906-.133-1.29-.363S4.53-.75 4.38-1.19c-.21.387-.5.71-.848.98a1.79 1.79 0 0 1-1.113.402c-.285 0-.574-.06-.863-.133s-.52-.23-.69-.422c-.19-.195-.27-.46-.27-.77s.098-.574.31-.824c.19-.23.46-.367.79-.367.19 0 .363.078.516.19.156.137.23.31.23.5a1.04 1.04 0 0 1-.27.711c-.19.19-.402.328-.672.363" class="I"/></symbol><symbol id="P" class="H"><path d="M5.953 4.742c-.73-.574-1.344-1.21-1.844-1.937-.52-.73-.94-1.52-1.27-2.324a12.53 12.53 0 0 1-.727-2.574c-.176-.883-.25-1.785-.25-2.707s.074-1.824.25-2.727a12.47 12.47 0 0 1 .746-2.59c.328-.828.75-1.613 1.27-2.344s1.133-1.363 1.824-1.902c0-.016.02-.035.094-.035h.176c.035 0 .055.02.094.055s.06.078.06.117c0 .06-.02.094-.04.113a10.13 10.13 0 0 0-1.574 1.98c-.422.69-.75 1.438-1 2.227a14.88 14.88 0 0 0-.535 2.457 19.26 19.26 0 0 0-.172 2.648c0 4.07 1.074 7.145 3.262 9.254.04.04.06.078.06.156 0 .035-.02.074-.06.113s-.06.06-.094.06h-.176c-.074 0-.094-.02-.094-.04" class="I"/></symbol><symbol id="Q" class="H"><path d="M1.246 4.78c-.113 0-.172-.06-.172-.172 0-.06 0-.098.04-.117C3.3 2.344 4.398-.73 4.398-4.8S3.3-11.96 1.152-14.074c-.06-.02-.078-.078-.078-.152 0-.04.02-.078.06-.117s.078-.055.113-.055h.176c.04 0 .055.02.094.035.922.73 1.69 1.613 2.305 2.652s1.055 2.148 1.344 3.32a15.94 15.94 0 0 1 .422 3.59 15.28 15.28 0 0 1-.23 2.687C5.203-1.23 4.953-.383 4.63.46a12.64 12.64 0 0 1-1.27 2.344 9.83 9.83 0 0 1-1.844 1.937c-.04.02-.055.04-.094.04h-.176" class="I"/></symbol><symbol id="R" class="H"><path d="M.402 0v-.47c.297 0 .55-.016.754-.07.188-.05.297-.172.297-.363v-7.055c0-.242-.043-.418-.11-.523-.082-.11-.176-.16-.31-.187S.684-8.71.402-8.71v-.47l1.988-.148v4.625a2.34 2.34 0 0 1 .781-.902 2.06 2.06 0 0 1 1.129-.336c.617 0 1.074.164 1.398.457.31.297.47.754.47 1.36v3.223c0 .19.094.313.297.363.188.055.44.07.754.07V0H4.14v-.47c.293 0 .55-.016.75-.07.19-.05.297-.172.297-.363v-3.184c0-.43-.066-.793-.187-1.074-.133-.28-.39-.43-.78-.43-.523 0-.953.215-1.29.63s-.496.887-.496 1.414v2.645c0 .19.094.313.293.363.19.055.445.07.754.07V0H.402" class="I"/></symbol><symbol id="S" class="H"><path d="M.418 0v-.47c.293 0 .55-.016.75-.07.19-.05.297-.172.297-.363V-4.57c0-.336-.066-.55-.203-.633S.86-5.32.47-5.32v-.473l1.938-.148v5.04c0 .19.082.313.254.363.164.055.39.07.688.07V0H.418M.98-8.254c0-.187.066-.36.215-.508s.324-.23.523-.23c.12 0 .242.043.363.11a.81.81 0 0 1 .27.27c.066.12.11.238.11.36 0 .203-.082.38-.23.527s-.32.215-.512.215c-.2 0-.375-.07-.523-.215S.98-8.05.98-8.254" class="I"/></symbol><symbol id="T" class="H"><path d="M.445.027v-2.18c0-.066.04-.105.12-.105h.16c.055 0 .078.04.105.105.242 1.305.848 1.95 1.816 1.95.414 0 .766-.094 1.063-.28.28-.187.43-.496.43-.898 0-.285-.12-.527-.336-.742-.23-.2-.5-.336-.793-.414l-.902-.176c-.297-.055-.578-.16-.82-.297a1.71 1.71 0 0 1-.617-.551c-.16-.215-.227-.484-.227-.777 0-.39.094-.715.31-.97a1.84 1.84 0 0 1 .82-.539 3.44 3.44 0 0 1 1.074-.172c.457 0 .848.12 1.195.36l.39-.336c0-.012.012-.023.066-.023h.094c.027 0 .04.012.066.04s.043.04.043.066v1.762c0 .078-.043.12-.11.12h-.16c-.082 0-.12-.043-.12-.12 0-.457-.137-.832-.39-1.13-.27-.28-.633-.43-1.1-.43a2.31 2.31 0 0 0-1.047.227c-.297.148-.445.402-.445.766a.73.73 0 0 0 .313.621c.215.16.457.266.75.336l.914.172a3.45 3.45 0 0 1 .848.363c.27.164.47.38.633.62.16.254.242.535.242.86a2.08 2.08 0 0 1-.176.844c-.11.242-.27.434-.457.594a1.71 1.71 0 0 1-.711.336c-.27.066-.55.105-.848.105-.566 0-1.05-.172-1.437-.55L.71.11C.71.12.684.133.645.133H.566c-.082 0-.12-.04-.12-.105" class="I"/></symbol><symbol id="U" class="H"><path d="M1.37-1.613V-5.32H.254v-.352c.578 0 1.008-.27 1.293-.82a3.95 3.95 0 0 0 .414-1.773h.39v2.473h1.895v.473H2.352v3.68c0 .38.055.7.188.98.12.285.352.418.672.418.297 0 .523-.148.66-.44s.203-.605.203-.957v-.793h.387v.82a2.19 2.19 0 0 1-.16.832c-.11.27-.254.5-.457.66a1.15 1.15 0 0 1-.727.254c-.535 0-.965-.145-1.277-.47-.32-.324-.47-.738-.47-1.277" class="I"/></symbol><clipPath id="V"><path d="M59.793 360H62v.543h-2.207zm0 0"/></clipPath><clipPath id="W"><path d="M61 360h2v.543h-2zm0 0"/></clipPath><clipPath id="X"><path d="M62 360h2v.543h-2zm0 0"/></clipPath><clipPath id="Y"><path d="M62 360h3v.543h-3zm0 0"/></clipPath><clipPath id="Z"><path d="M63 360h3v.543h-3zm0 0"/></clipPath><clipPath id="a"><path d="M65 360h2v.543h-2zm0 0"/></clipPath><clipPath id="b"><path d="M66 360h3v.543h-3zm0 0"/></clipPath><clipPath id="c"><path d="M68 360h2v.543h-2zm0 0"/></clipPath><clipPath id="d"><path d="M69 360h2v.543h-2zm0 0"/></clipPath><clipPath id="e"><path d="M70 360h3v.543h-3zm0 0"/></clipPath><clipPath id="f"><path d="M72 360h2v.543h-2zm0 0"/></clipPath><clipPath id="g"><path d="M73 360h3v.543h-3zm0 0"/></clipPath><clipPath id="h"><path d="M75 360h2v.543h-2zm0 0"/></clipPath><clipPath id="i"><path d="M76 360h2v.543h-2zm0 0"/></clipPath><clipPath id="j"><path d="M77 360h3v.543h-3zm0 0"/></clipPath><clipPath id="k"><path d="M79 360h2v.543h-2zm0 0"/></clipPath><clipPath id="l"><path d="M80 360h3v.543h-3zm0 0"/></clipPath><clipPath id="m"><path d="M80 359h3v1.543h-3zm0 0"/></clipPath><clipPath id="n"><path d="M82 359h2v1.543h-2zm0 0"/></clipPath><clipPath id="o"><path d="M83 358h2v2.543h-2zm0 0"/></clipPath><clipPath id="p"><path d="M84 358h3v2.543h-3zm0 0"/></clipPath><clipPath id="q"><path d="M86 358h2v2.543h-2zm0 0"/></clipPath><clipPath id="r"><path d="M87 357h3v3.543h-3zm0 0"/></clipPath><clipPath id="s"><path d="M89 356h2v4.543h-2zm0 0"/></clipPath><clipPath id="t"><path d="M90 356h2v4.543h-2zm0 0"/></clipPath><clipPath id="u"><path d="M91 355h3v5.543h-3zm0 0"/></clipPath><clipPath id="v"><path d="M93 352h2v8.543h-2zm0 0"/></clipPath><clipPath id="w"><path d="M94 351h3v9.543h-3zm0 0"/></clipPath><clipPath id="x"><path d="M96 351h2v9.543h-2zm0 0"/></clipPath><clipPath id="y"><path d="M95 350h3v10.543h-3zm0 0"/></clipPath><clipPath id="z"><path d="M97 348h2v12.543h-2zm0 0"/></clipPath><clipPath id="AA"><path d="M97 347h2v13.543h-2zm0 0"/></clipPath><clipPath id="AB"><path d="M98 345h3v15.543h-3zm0 0"/></clipPath><clipPath id="AC"><path d="M100 342h2v18.543h-2zm0 0"/></clipPath><clipPath id="AD"><path d="M101 340h2v20.543h-2zm0 0"/></clipPath><clipPath id="AE"><path d="M101 340h3v20.543h-3zm0 0"/></clipPath><clipPath id="AF"><path d="M102 335h3v25.543h-3zm0 0"/></clipPath><clipPath id="AG"><path d="M104 336h2v24.543h-2zm0 0"/></clipPath><clipPath id="AH"><path d="M105 331h3v29.543h-3zm0 0"/></clipPath><clipPath id="AI"><path d="M107 326h2v34.543h-2zm0 0"/></clipPath><clipPath id="AJ"><path d="M108 324h2v36.543h-2zm0 0"/></clipPath><clipPath id="AK"><path d="M108 324h3v36.543h-3zm0 0"/></clipPath><clipPath id="AL"><path d="M109 320h3v40.543h-3zm0 0"/></clipPath><clipPath id="AM"><path d="M111 315h2v45.543h-2zm0 0"/></clipPath><clipPath id="AN"><path d="M112 313h3v47.543h-3zm0 0"/></clipPath><clipPath id="AO"><path d="M114 307h2v53.543h-2zm0 0"/></clipPath><clipPath id="AP"><path d="M114 306h2v54.543h-2zm0 0"/></clipPath><clipPath id="AQ"><path d="M115 298h2v62.543h-2zm0 0"/></clipPath><clipPath id="AR"><path d="M116 300h3v60.543h-3zm0 0"/></clipPath><clipPath id="AS"><path d="M118 295h2v65.543h-2zm0 0"/></clipPath><clipPath id="AT"><path d="M119 287h3v73.543h-3zm0 0"/></clipPath><clipPath id="AU"><path d="M121 284h2v76.543h-2zm0 0"/></clipPath><clipPath id="AV"><path d="M122 278h2v82.543h-2zm0 0"/></clipPath><clipPath id="AW"><path d="M123 278h3v82.543h-3zm0 0"/></clipPath><clipPath id="AX"><path d="M125 271h2v89.543h-2zm0 0"/></clipPath><clipPath id="AY"><path d="M126 267h3v93.543h-3zm0 0"/></clipPath><clipPath id="AZ"><path d="M128 271h2v89.543h-2zm0 0"/></clipPath><clipPath id="Aa"><path d="M129 259h2v101.543h-2zm0 0"/></clipPath><clipPath id="Ab"><path d="M130 260h3v100.543h-3zm0 0"/></clipPath><clipPath id="Ac"><path d="M132 256h2v104.543h-2zm0 0"/></clipPath><clipPath id="Ad"><path d="M133 254h3v106.543h-3zm0 0"/></clipPath><clipPath id="Ae"><path d="M135 254h2v106.543h-2zm0 0"/></clipPath><clipPath id="Af"><path d="M134 254h3v106.543h-3zm0 0"/></clipPath><clipPath id="Ag"><path d="M136 250h2v110.543h-2zm0 0"/></clipPath><clipPath id="Ah"><path d="M137 252h3v108.543h-3zm0 0"/></clipPath><clipPath id="Ai"><path d="M139 249h2v111.543h-2zm0 0"/></clipPath><clipPath id="Aj"><path d="M140 248h2v112.543h-2zm0 0"/></clipPath><clipPath id="Ak"><path d="M140 248h3v112.543h-3zm0 0"/></clipPath><clipPath id="Al"><path d="M142 250h2v110.543h-2zm0 0"/></clipPath><clipPath id="Am"><path d="M141 250h3v110.543h-3zm0 0"/></clipPath><clipPath id="An"><path d="M143 252h2v108.543h-2zm0 0"/></clipPath><clipPath id="Ao"><path d="M144 250h3v110.543h-3zm0 0"/></clipPath><clipPath id="Ap"><path d="M146 255h2v105.543h-2zm0 0"/></clipPath><clipPath id="Aq"><path d="M147 251h2v109.543h-2zm0 0"/></clipPath><clipPath id="Ar"><path d="M147 251h3v109.543h-3zm0 0"/></clipPath><clipPath id="As"><path d="M148 254h3v106.543h-3zm0 0"/></clipPath><clipPath id="At"><path d="M150 253h2v107.543h-2zm0 0"/></clipPath><clipPath id="Au"><path d="M151 258h3v102.543h-3zm0 0"/></clipPath><clipPath id="Av"><path d="M153 261h2v99.543h-2zm0 0"/></clipPath><clipPath id="Aw"><path d="M154 256h2v104.543h-2zm0 0"/></clipPath><clipPath id="Ax"><path d="M154 255h2v105.543h-2zm0 0"/></clipPath><clipPath id="Ay"><path d="M155 262h3v98.543h-3zm0 0"/></clipPath><clipPath id="Az"><path d="M157 267h2v93.543h-2zm0 0"/></clipPath><clipPath id="BA"><path d="M158 268h3v92.543h-3zm0 0"/></clipPath><clipPath id="BB"><path d="M160 271h2v89.543h-2zm0 0"/></clipPath><clipPath id="BC"><path d="M161 271h2v89.543h-2zm0 0"/></clipPath><clipPath id="BD"><path d="M162 278h3v82.543h-3zm0 0"/></clipPath><clipPath id="BE"><path d="M164 280h2v80.543h-2zm0 0"/></clipPath><clipPath id="BF"><path d="M165 281h3v79.543h-3zm0 0"/></clipPath><clipPath id="BG"><path d="M167 284h2v76.543h-2zm0 0"/></clipPath><clipPath id="BH"><path d="M168 288h2v72.543h-2zm0 0"/></clipPath><clipPath id="BI"><path d="M169 290h3v70.543h-3zm0 0"/></clipPath><clipPath id="BJ"><path d="M171 296h2v64.543h-2zm0 0"/></clipPath><clipPath id="BK"><path d="M172 299h3v61.543h-3zm0 0"/></clipPath><clipPath id="BL"><path d="M174 303h2v57.543h-2zm0 0"/></clipPath><clipPath id="BM"><path d="M173 303h3v57.543h-3zm0 0"/></clipPath><clipPath id="BN"><path d="M175 307h2v53.543h-2zm0 0"/></clipPath><clipPath id="BO"><path d="M176 309h3v51.543h-3zm0 0"/></clipPath><clipPath id="BP"><path d="M178 308h2v52.543h-2zm0 0"/></clipPath><clipPath id="BQ"><path d="M179 313h3v47.543h-3zm0 0"/></clipPath><clipPath id="BR"><path d="M181 315h2v45.543h-2zm0 0"/></clipPath><clipPath id="BS"><path d="M180 315h3v45.543h-3zm0 0"/></clipPath><clipPath id="BT"><path d="M182 318h2v42.543h-2zm0 0"/></clipPath><clipPath id="BU"><path d="M183 320h3v40.543h-3zm0 0"/></clipPath><clipPath id="BV"><path d="M185 320h2v40.543h-2zm0 0"/></clipPath><clipPath id="BW"><path d="M186 322h2v38.543h-2zm0 0"/></clipPath><clipPath id="BX"><path d="M186 322h3v38.543h-3zm0 0"/></clipPath><clipPath id="BY"><path d="M187 328h3v32.543h-3zm0 0"/></clipPath><clipPath id="BZ"><path d="M189 327h2v33.543h-2zm0 0"/></clipPath><clipPath id="Ba"><path d="M190 331h3v29.543h-3zm0 0"/></clipPath><clipPath id="Bb"><path d="M190 330h3v30.543h-3zm0 0"/></clipPath><clipPath id="Bc"><path d="M192 331h2v29.543h-2zm0 0"/></clipPath><clipPath id="Bd"><path d="M193 332h2v28.543h-2zm0 0"/></clipPath><clipPath id="Be"><path d="M194 334h3v26.543h-3zm0 0"/></clipPath><clipPath id="Bf"><path d="M196 335h2v25.543h-2zm0 0"/></clipPath><clipPath id="Bg"><path d="M197 336h3v24.543h-3zm0 0"/></clipPath><clipPath id="Bh"><path d="M199 337h2v23.543h-2zm0 0"/></clipPath><clipPath id="Bi"><path d="M200 338h2v22.543h-2zm0 0"/></clipPath><clipPath id="Bj"><path d="M201 339h3v21.543h-3zm0 0"/></clipPath><clipPath id="Bk"><path d="M203 340h2v20.543h-2zm0 0"/></clipPath><clipPath id="Bl"><path d="M204 340h3v20.543h-3zm0 0"/></clipPath><clipPath id="Bm"><path d="M206 341h2v19.543h-2zm0 0"/></clipPath><clipPath id="Bn"><path d="M207 342h2v18.543h-2zm0 0"/></clipPath><clipPath id="Bo"><path d="M208 341h3v19.543h-3zm0 0"/></clipPath><clipPath id="Bp"><path d="M210 342h2v18.543h-2zm0 0"/></clipPath><clipPath id="Bq"><path d="M211 343h3v17.543h-3zm0 0"/></clipPath><clipPath id="Br"><path d="M211 342h3v18.543h-3zm0 0"/></clipPath><clipPath id="Bs"><path d="M213 342h2v18.543h-2zm0 0"/></clipPath><clipPath id="Bt"><path d="M214 342h2v18.543h-2zm0 0"/></clipPath><clipPath id="Bu"><path d="M215 342h3v18.543h-3zm0 0"/></clipPath><clipPath id="Bv"><path d="M217 342h2v18.543h-2zm0 0"/></clipPath><clipPath id="Bw"><path d="M218 341h3v19.543h-3zm0 0"/></clipPath><clipPath id="Bx"><path d="M220 343h2v17.543h-2zm0 0"/></clipPath><clipPath id="By"><path d="M219 343h3v17.543h-3zm0 0"/></clipPath><clipPath id="Bz"><path d="M221 342h2v18.543h-2zm0 0"/></clipPath><clipPath id="CA"><path d="M222 342h3v18.543h-3zm0 0"/></clipPath><clipPath id="CB"><path d="M224 340h2v20.543h-2zm0 0"/></clipPath><clipPath id="CC"><path d="M225 339h2v21.543h-2zm0 0"/></clipPath><clipPath id="CD"><path d="M225 339h3v21.543h-3zm0 0"/></clipPath><clipPath id="CE"><path d="M226 339h3v21.543h-3zm0 0"/></clipPath><clipPath id="CF"><path d="M228 337h2v23.543h-2zm0 0"/></clipPath><clipPath id="CG"><path d="M229 337h3v23.543h-3zm0 0"/></clipPath><clipPath id="CH"><path d="M231 334h2v26.543h-2zm0 0"/></clipPath><clipPath id="CI"><path d="M232 334h2v26.543h-2zm0 0"/></clipPath><clipPath id="CJ"><path d="M232 334h3v26.543h-3zm0 0"/></clipPath><clipPath id="CK"><path d="M233 333h3v27.543h-3zm0 0"/></clipPath><clipPath id="CL"><path d="M235 331h2v29.543h-2zm0 0"/></clipPath><clipPath id="CM"><path d="M236 329h3v31.543h-3zm0 0"/></clipPath><clipPath id="CN"><path d="M238 327h2v33.543h-2zm0 0"/></clipPath><clipPath id="CO"><path d="M239 323h2v37.543h-2zm0 0"/></clipPath><clipPath id="CP"><path d="M239 322h2v38.543h-2zm0 0"/></clipPath><clipPath id="CQ"><path d="M240 320h3v40.543h-3zm0 0"/></clipPath><clipPath id="CR"><path d="M242 318h2v42.543h-2zm0 0"/></clipPath><clipPath id="CS"><path d="M243 314h3v46.543h-3zm0 0"/></clipPath><clipPath id="CT"><path d="M245 307h2v53.543h-2zm0 0"/></clipPath><clipPath id="CU"><path d="M246 305h2v55.543h-2zm0 0"/></clipPath><clipPath id="CV"><path d="M247 297h3v63.543h-3zm0 0"/></clipPath><clipPath id="CW"><path d="M249 291h2v69.543h-2zm0 0"/></clipPath><clipPath id="CX"><path d="M250 288h3v72.543h-3zm0 0"/></clipPath><clipPath id="CY"><path d="M252 276h2v84.543h-2zm0 0"/></clipPath><clipPath id="CZ"><path d="M253 270h2v90.543h-2zm0 0"/></clipPath><clipPath id="Ca"><path d="M254 265h3v95.543h-3zm0 0"/></clipPath><clipPath id="Cb"><path d="M256 251h2v109.543h-2zm0 0"/></clipPath><clipPath id="Cc"><path d="M256 250h2v110.543h-2zm0 0"/></clipPath><clipPath id="Cd"><path d="M257 241h3v119.543h-3zm0 0"/></clipPath><clipPath id="Ce"><path d="M259 231h2v129.543h-2zm0 0"/></clipPath><clipPath id="Cf"><path d="M258 231h3v129.543h-3zm0 0"/></clipPath><clipPath id="Cg"><path d="M260 215h2v145.543h-2zm0 0"/></clipPath><clipPath id="Ch"><path d="M261 207h3v153.543h-3zm0 0"/></clipPath><clipPath id="Ci"><path d="M263 190h2v170.543h-2zm0 0"/></clipPath><clipPath id="Cj"><path d="M264 179h3v181.543h-3zm0 0"/></clipPath><clipPath id="Ck"><path d="M266 173h2v187.543h-2zm0 0"/></clipPath><clipPath id="Cl"><path d="M265 173h3v187.543h-3zm0 0"/></clipPath><clipPath id="Cm"><path d="M267 150h2v210.543h-2zm0 0"/></clipPath><clipPath id="Cn"><path d="M268 138h3v222.543h-3zm0 0"/></clipPath><clipPath id="Co"><path d="M270 123h2v237.543h-2zm0 0"/></clipPath><clipPath id="Cp"><path d="M271 103h2v257.543h-2zm0 0"/></clipPath><clipPath id="Cq"><path d="M271 103h3v257.543h-3zm0 0"/></clipPath><clipPath id="Cr"><path d="M272 102h3v258.543h-3zm0 0"/></clipPath><clipPath id="Cs"><path d="M274 89h2v271.543h-2zm0 0"/></clipPath><clipPath id="Ct"><path d="M275 74h3v286.543h-3zm0 0"/></clipPath><clipPath id="Cu"><path d="M277 60h2v300.543h-2zm0 0"/></clipPath><clipPath id="Cv"><path d="M278 68h2v292.543h-2zm0 0"/></clipPath><clipPath id="Cw"><path d="M279 58h3v302.543h-3zm0 0"/></clipPath><clipPath id="Cx"><path d="M281 49h2v311.543h-2zm0 0"/></clipPath><clipPath id="Cy"><path d="M281 48h2v312.543h-2zm0 0"/></clipPath><clipPath id="Cz"><path d="M282 43h3v317.543h-3zm0 0"/></clipPath><clipPath id="DA"><path d="M284 49h2v311.543h-2zm0 0"/></clipPath><clipPath id="DB"><path d="M285 51h2v309.543h-2zm0 0"/></clipPath><clipPath id="DC"><path d="M286 52h3v308.543h-3zm0 0"/></clipPath><clipPath id="DD"><path d="M286 51h3v309.543h-3zm0 0"/></clipPath><clipPath id="DE"><path d="M288 63h2v297.543h-2zm0 0"/></clipPath><clipPath id="DF"><path d="M289 76h3v284.543h-3zm0 0"/></clipPath><clipPath id="DG"><path d="M291 74h2v286.543h-2zm0 0"/></clipPath><clipPath id="DH"><path d="M292 96h2v264.543h-2zm0 0"/></clipPath><clipPath id="DI"><path d="M293 107h3v253.543h-3zm0 0"/></clipPath><clipPath id="DJ"><path d="M295 119h2v241.543h-2zm0 0"/></clipPath><clipPath id="DK"><path d="M296 138h3v222.543h-3zm0 0"/></clipPath><clipPath id="DL"><path d="M298 150h2v210.543h-2zm0 0"/></clipPath><clipPath id="DM"><path d="M299 156h2v204.543h-2zm0 0"/></clipPath><clipPath id="DN"><path d="M300 178h3v182.543h-3zm0 0"/></clipPath><clipPath id="DO"><path d="M302 195h2v165.543h-2zm0 0"/></clipPath><clipPath id="DP"><path d="M303 209h3v151.543h-3zm0 0"/></clipPath><clipPath id="DQ"><path d="M305 220h2v140.543h-2zm0 0"/></clipPath><clipPath id="DR"><path d="M304 220h3v140.543h-3zm0 0"/></clipPath><clipPath id="DS"><path d="M306 237h2v123.543h-2zm0 0"/></clipPath><clipPath id="DT"><path d="M307 250h3v110.543h-3zm0 0"/></clipPath><clipPath id="DU"><path d="M307 249h3v111.543h-3zm0 0"/></clipPath><clipPath id="DV"><path d="M309 264h2v96.543h-2zm0 0"/></clipPath><clipPath id="DW"><path d="M310 276h2v84.543h-2zm0 0"/></clipPath><clipPath id="DX"><path d="M310 276h3v84.543h-3zm0 0"/></clipPath><clipPath id="DY"><path d="M311 285h3v75.543h-3zm0 0"/></clipPath><clipPath id="DZ"><path d="M313 294h2v66.543h-2zm0 0"/></clipPath><clipPath id="Da"><path d="M314 303h3v57.543h-3zm0 0"/></clipPath><clipPath id="Db"><path d="M316 308h2v52.543h-2zm0 0"/></clipPath><clipPath id="Dc"><path d="M317 313h2v47.543h-2zm0 0"/></clipPath><clipPath id="Dd"><path d="M317 313h3v47.543h-3zm0 0"/></clipPath><clipPath id="De"><path d="M318 318h3v42.543h-3zm0 0"/></clipPath><clipPath id="Df"><path d="M320 324h2v36.543h-2zm0 0"/></clipPath><clipPath id="Dg"><path d="M321 328h3v32.543h-3zm0 0"/></clipPath><clipPath id="Dh"><path d="M323 334h2v26.543h-2zm0 0"/></clipPath><clipPath id="Di"><path d="M324 335h2v25.543h-2zm0 0"/></clipPath><clipPath id="Dj"><path d="M325 338h3v22.543h-3zm0 0"/></clipPath><clipPath id="Dk"><path d="M327 342h2v18.543h-2zm0 0"/></clipPath><clipPath id="Dl"><path d="M328 343h3v17.543h-3zm0 0"/></clipPath><clipPath id="Dm"><path d="M330 344h2v16.543h-2zm0 0"/></clipPath><clipPath id="Dn"><path d="M331 348h2v12.543h-2zm0 0"/></clipPath><clipPath id="Do"><path d="M332 349h3v11.543h-3zm0 0"/></clipPath><clipPath id="Dp"><path d="M334 350h2v10.543h-2zm0 0"/></clipPath><clipPath id="Dq"><path d="M335 351h3v9.543h-3zm0 0"/></clipPath><clipPath id="Dr"><path d="M337 352h2v8.543h-2zm0 0"/></clipPath><clipPath id="Ds"><path d="M338 352h2v8.543h-2zm0 0"/></clipPath><clipPath id="Dt"><path d="M339 353h3v7.543h-3zm0 0"/></clipPath><clipPath id="Du"><path d="M341 353h2v7.543h-2zm0 0"/></clipPath><clipPath id="Dv"><path d="M342 354h3v6.543h-3zm0 0"/></clipPath><clipPath id="Dw"><path d="M344 355h2v5.543h-2zm0 0"/></clipPath><clipPath id="Dx"><path d="M343 355h3v5.543h-3zm0 0"/></clipPath><clipPath id="Dy"><path d="M345 355h2v5.543h-2zm0 0"/></clipPath><clipPath id="Dz"><path d="M346 355h3v5.543h-3zm0 0"/></clipPath><clipPath id="EA"><path d="M348 356h2v4.543h-2zm0 0"/></clipPath><clipPath id="EB"><path d="M349 356h3v4.543h-3zm0 0"/></clipPath><clipPath id="EC"><path d="M351 356h2v4.543h-2zm0 0"/></clipPath><clipPath id="ED"><path d="M350 356h3v4.543h-3zm0 0"/></clipPath><clipPath id="EE"><path d="M352 356h2v4.543h-2zm0 0"/></clipPath><clipPath id="EF"><path d="M353 357h3v3.543h-3zm0 0"/></clipPath><clipPath id="EG"><path d="M353 356h3v4.543h-3zm0 0"/></clipPath><clipPath id="EH"><path d="M355 356h2v4.543h-2zm0 0"/></clipPath><clipPath id="EI"><path d="M356 356h2v4.543h-2zm0 0"/></clipPath><clipPath id="EJ"><path d="M356 356h3v4.543h-3zm0 0"/></clipPath><clipPath id="EK"><path d="M357 356h3v4.543h-3zm0 0"/></clipPath><clipPath id="EL"><path d="M359 357h2v3.543h-2zm0 0"/></clipPath><clipPath id="EM"><path d="M360 357h3v3.543h-3zm0 0"/></clipPath><clipPath id="EN"><path d="M360 356h3v4.543h-3zm0 0"/></clipPath><clipPath id="EO"><path d="M362 357h2v3.543h-2zm0 0"/></clipPath><clipPath id="EP"><path d="M363 357h2v3.543h-2zm0 0"/></clipPath><clipPath id="EQ"><path d="M364 356h3v4.543h-3zm0 0"/></clipPath><clipPath id="ER"><path d="M366 356h2v4.543h-2zm0 0"/></clipPath><clipPath id="ES"><path d="M367 356h3v4.543h-3zm0 0"/></clipPath><clipPath id="ET"><path d="M369 356h2v4.543h-2zm0 0"/></clipPath><clipPath id="EU"><path d="M370 356h2v4.543h-2zm0 0"/></clipPath><clipPath id="EV"><path d="M371 356h3v4.543h-3zm0 0"/></clipPath><clipPath id="EW"><path d="M373 356h2v4.543h-2zm0 0"/></clipPath><clipPath id="EX"><path d="M374 356h3v4.543h-3zm0 0"/></clipPath><clipPath id="EY"><path d="M376 356h2v4.543h-2zm0 0"/></clipPath><clipPath id="EZ"><path d="M377 355h2v5.543h-2zm0 0"/></clipPath><clipPath id="Ea"><path d="M378 356h3v4.543h-3zm0 0"/></clipPath><clipPath id="Eb"><path d="M380 354h2v6.543h-2zm0 0"/></clipPath><clipPath id="Ec"><path d="M381 354h3v6.543h-3zm0 0"/></clipPath><clipPath id="Ed"><path d="M383 354h2v6.543h-2zm0 0"/></clipPath><clipPath id="Ee"><path d="M384 353h2v7.543h-2zm0 0"/></clipPath><clipPath id="Ef"><path d="M385 353h3v7.543h-3zm0 0"/></clipPath><clipPath id="Eg"><path d="M387 352h2v8.543h-2zm0 0"/></clipPath><clipPath id="Eh"><path d="M388 352h3v8.543h-3zm0 0"/></clipPath><clipPath id="Ei"><path d="M390 351h2v9.543h-2zm0 0"/></clipPath><clipPath id="Ej"><path d="M389 351h3v9.543h-3zm0 0"/></clipPath><clipPath id="Ek"><path d="M391 350h2v10.543h-2zm0 0"/></clipPath><clipPath id="El"><path d="M392 349h3v11.543h-3zm0 0"/></clipPath><clipPath id="Em"><path d="M394 349h2v11.543h-2zm0 0"/></clipPath><clipPath id="En"><path d="M395 348h2v12.543h-2zm0 0"/></clipPath><clipPath id="Eo"><path d="M395 348h3v12.543h-3zm0 0"/></clipPath><clipPath id="Ep"><path d="M396 348h3v12.543h-3zm0 0"/></clipPath><clipPath id="Eq"><path d="M398 347h2v13.543h-2zm0 0"/></clipPath><clipPath id="Er"><path d="M399 345h3v15.543h-3zm0 0"/></clipPath><clipPath id="Es"><path d="M401 344h2v16.543h-2zm0 0"/></clipPath><clipPath id="Et"><path d="M402 343h2v17.543h-2zm0 0"/></clipPath><clipPath id="Eu"><path d="M403 342h3v18.543h-3zm0 0"/></clipPath><clipPath id="Ev"><path d="M405 342h2v18.543h-2zm0 0"/></clipPath><clipPath id="Ew"><path d="M406 340h3v20.543h-3zm0 0"/></clipPath><clipPath id="Ex"><path d="M408 340h2v20.543h-2zm0 0"/></clipPath><clipPath id="Ey"><path d="M409 338h2v22.543h-2zm0 0"/></clipPath><clipPath id="Ez"><path d="M410 337h3v23.543h-3zm0 0"/></clipPath><clipPath id="FA"><path d="M412 335h2v25.543h-2zm0 0"/></clipPath><clipPath id="FB"><path d="M413 334h3v26.543h-3zm0 0"/></clipPath><clipPath id="FC"><path d="M415 332h2v28.543h-2zm0 0"/></clipPath><clipPath id="FD"><path d="M416 332h2v28.543h-2zm0 0"/></clipPath><clipPath id="FE"><path d="M417 331h3v29.543h-3zm0 0"/></clipPath><clipPath id="FF"><path d="M419 331h2v29.543h-2zm0 0"/></clipPath><clipPath id="FG"><path d="M420 329h3v31.543h-3zm0 0"/></clipPath><clipPath id="FH"><path d="M422 325h2v35.543h-2zm0 0"/></clipPath><clipPath id="FI"><path d="M423 327h2v33.543h-2zm0 0"/></clipPath><clipPath id="FJ"><path d="M424 324h3v36.543h-3zm0 0"/></clipPath><clipPath id="FK"><path d="M426 323h2v37.543h-2zm0 0"/></clipPath><clipPath id="FL"><path d="M427 324h3v36.543h-3zm0 0"/></clipPath><clipPath id="FM"><path d="M429 321h2v39.543h-2zm0 0"/></clipPath><clipPath id="FN"><path d="M428 321h3v39.543h-3zm0 0"/></clipPath><clipPath id="FO"><path d="M430 321h2v39.543h-2zm0 0"/></clipPath><clipPath id="FP"><path d="M431 324h3v36.543h-3zm0 0"/></clipPath><clipPath id="FQ"><path d="M433 327h2v33.543h-2zm0 0"/></clipPath><clipPath id="FR"><path d="M434 322h2v38.543h-2zm0 0"/></clipPath><clipPath id="FS"><path d="M434 322h3v38.543h-3zm0 0"/></clipPath><clipPath id="FT"><path d="M436 321h2v39.543h-2zm0 0"/></clipPath><clipPath id="FU"><path d="M435 321h3v39.543h-3zm0 0"/></clipPath><clipPath id="FV"><path d="M437 322h2v38.543h-2zm0 0"/></clipPath><clipPath id="FW"><path d="M438 325h3v35.543h-3zm0 0"/></clipPath><clipPath id="FX"><path d="M440 324h2v36.543h-2zm0 0"/></clipPath><clipPath id="FY"><path d="M440 323h2v37.543h-2zm0 0"/></clipPath><clipPath id="FZ"><path d="M441 322h2v38.543h-2zm0 0"/></clipPath><clipPath id="Fa"><path d="M441 322h3v38.543h-3zm0 0"/></clipPath><clipPath id="Fb"><path d="M442 323h3v37.543h-3zm0 0"/></clipPath><clipPath id="Fc"><path d="M444 323h2v37.543h-2zm0 0"/></clipPath><clipPath id="Fd"><path d="M445 329h3v31.543h-3zm0 0"/></clipPath><clipPath id="Fe"><path d="M447 327h2v33.543h-2zm0 0"/></clipPath><clipPath id="Ff"><path d="M448 331h2v29.543h-2zm0 0"/></clipPath><clipPath id="Fg"><path d="M449 328h3v32.543h-3zm0 0"/></clipPath><clipPath id="Fh"><path d="M451 333h2v27.543h-2zm0 0"/></clipPath><clipPath id="Fi"><path d="M452 334h3v26.543h-3zm0 0"/></clipPath><clipPath id="Fj"><path d="M454 335h2v25.543h-2zm0 0"/></clipPath><clipPath id="Fk"><path d="M455 338h2v22.543h-2zm0 0"/></clipPath><clipPath id="Fl"><path d="M456 339h3v21.543h-3zm0 0"/></clipPath><clipPath id="Fm"><path d="M458 342h2v18.543h-2zm0 0"/></clipPath><clipPath id="Fn"><path d="M459 342h3v18.543h-3zm0 0"/></clipPath><clipPath id="Fo"><path d="M461 344h2v16.543h-2zm0 0"/></clipPath><clipPath id="Fp"><path d="M462 346h2v14.543h-2zm0 0"/></clipPath><clipPath id="Fq"><path d="M463 348h3v12.543h-3zm0 0"/></clipPath><clipPath id="Fr"><path d="M465 349h2v11.543h-2zm0 0"/></clipPath><clipPath id="Fs"><path d="M466 349h3v11.543h-3zm0 0"/></clipPath><clipPath id="Ft"><path d="M468 351h2v9.543h-2zm0 0"/></clipPath><clipPath id="Fu"><path d="M467 351h3v9.543h-3zm0 0"/></clipPath><clipPath id="Fv"><path d="M469 352h2v8.543h-2zm0 0"/></clipPath><clipPath id="Fw"><path d="M470 353h3v7.543h-3zm0 0"/></clipPath><clipPath id="Fx"><path d="M472 355h2v5.543h-2zm0 0"/></clipPath><clipPath id="Fy"><path d="M472 354h2v6.543h-2zm0 0"/></clipPath><clipPath id="Fz"><path d="M473 356h3v4.543h-3zm0 0"/></clipPath><clipPath id="GA"><path d="M475 356h2v4.543h-2zm0 0"/></clipPath><clipPath id="GB"><path d="M474 356h3v4.543h-3zm0 0"/></clipPath><clipPath id="GC"><path d="M476 358h2v2.543h-2zm0 0"/></clipPath><clipPath id="GD"><path d="M477 358h3v2.543h-3zm0 0"/></clipPath><clipPath id="GE"><path d="M477 357h3v3.543h-3zm0 0"/></clipPath><clipPath id="GF"><path d="M479 358h2v2.543h-2zm0 0"/></clipPath><clipPath id="GG"><path d="M480 358h2v2.543h-2zm0 0"/></clipPath><clipPath id="GH"><path d="M480 358h3v2.543h-3zm0 0"/></clipPath><clipPath id="GI"><path d="M481 359h3v1.543h-3zm0 0"/></clipPath><clipPath id="GJ"><path d="M483 359h2v1.543h-2zm0 0"/></clipPath><clipPath id="GK"><path d="M484 360h3v.543h-3zm0 0"/></clipPath><clipPath id="GL"><path d="M486 360h2v.543h-2zm0 0"/></clipPath><clipPath id="GM"><path d="M486 359h2v1.543h-2zm0 0"/></clipPath><clipPath id="GN"><path d="M487 359h2v1.543h-2zm0 0"/></clipPath><clipPath id="GO"><path d="M488 360h3v.543h-3zm0 0"/></clipPath><clipPath id="GP"><path d="M490 360h2v.543h-2zm0 0"/></clipPath><clipPath id="GQ"><path d="M491 360h3v.543h-3zm0 0"/></clipPath><clipPath id="GR"><path d="M493 360h2v.543h-2zm0 0"/></clipPath><clipPath id="GS"><path d="M494 360h2v.543h-2zm0 0"/></clipPath><clipPath id="GT"><path d="M495 360h3v.543h-3zm0 0"/></clipPath><clipPath id="GU"><path d="M497 360h2v.543h-2zm0 0"/></clipPath><clipPath id="GV"><path d="M498 360h3v.543h-3zm0 0"/></clipPath><clipPath id="GW"><path d="M500 360h2v.543h-2zm0 0"/></clipPath><clipPath id="GX"><path d="M501 360h2v.543h-2zm0 0"/></clipPath><clipPath id="GY"><path d="M502 360h3v.543h-3zm0 0"/></clipPath><clipPath id="GZ"><path d="M504 360h2v.543h-2zm0 0"/></clipPath><clipPath id="Ga"><path d="M59.793 46h446.402v314.543H59.793zm0 0"/></clipPath><path id="Gb" d="M59.793 360.543h1.395v-.02h-1.395zm0 0"/><path id="Gc" d="M62.582 360.543h1.39v-.02h-1.39zm0 0"/><path id="Gd" d="M97.414 360.543h1.395V348.03h-1.395zm0 0"/><path id="Ge" d="M101.594 360.543h1.395v-20.4h-1.395zm0 0"/><path id="Gf" d="M108.563 360.543h1.39v-35.648h-1.39zm0 0"/><path id="Gg" d="M114.133 360.543h1.395v-53.535h-1.395zm0 0"/><path id="Gh" d="M135.035 360.543h1.395V254.79h-1.395zm0 0"/><path id="Gi" d="M147.574 360.543h1.395v-109.02h-1.395zm0 0"/><path id="Gj" d="M154.543 360.543h1.39V256.016h-1.39zm0 0"/><path id="Gk" d="M174.047 360.543h1.395V303.07h-1.395zm0 0"/><path id="Gl" d="M181.016 360.543h1.395v-45.03h-1.395zm0 0"/><path id="Gm" d="M190.77 360.543h1.39v-29.516h-1.39zm0 0"/><path id="Gn" d="M201.914 360.543h1.395V339.53h-1.395zm0 0"/><path id="Go" d="M211.668 360.543h1.395V343.04h-1.395zm0 0"/><path id="Gp" d="M220.027 360.543h1.395V343.1h-1.395zm0 0"/><path id="Gq" d="M239.535 360.543h1.395v-37.53h-1.395zm0 0"/><path id="Gr" d="M256.258 360.543h1.39V251.02h-1.39zm0 0"/><path id="Gs" d="M259.043 360.543h1.395v-128.98h-1.395zm0 0"/><path id="Gt" d="M266.008 360.543h1.395v-187.23h-1.395zm0 0"/><path id="Gu" d="M271.582 360.543h1.395v-257.23h-1.395zm0 0"/><path id="Gv" d="M305.023 360.543h1.395V220.54h-1.395zm0 0"/><path id="Gw" d="M310.598 360.543h1.39v-83.895h-1.39zm0 0"/><path id="Gx" d="M317.563 360.543h1.395V313.56h-1.395zm0 0"/><path id="Gy" d="M344.035 360.543h1.395v-5.39h-1.395zm0 0"/><path id="Gz" d="M351.004 360.543h1.395v-4.37h-1.395zm0 0"/><path id="HA" d="M353.79 360.543h1.395v-3.527h-1.395zm0 0"/><path id="HB" d="M356.578 360.543h1.39v-3.855h-1.39zm0 0"/><path id="HC" d="M360.758 360.543h1.395v-3.508h-1.395zm0 0"/><path id="HD" d="M429.03 360.543h1.395V321.78h-1.395zm0 0"/><path id="HE" d="M434.605 360.543H436V322.13h-1.395zm0 0"/><path id="HF" d="M441.57 360.543h1.395V322.23h-1.395zm0 0"/><path id="HG" d="M468.047 360.543h1.39v-8.656h-1.39zm0 0"/><path id="HH" d="M472.227 360.543h1.39v-5.496h-1.39zm0 0"/><path id="HI" d="M475.012 360.543h1.395v-3.63h-1.395zm0 0"/><path id="HJ" d="M477.797 360.543h1.395v-2.523h-1.395zm0 0"/><path id="HK" d="M480.586 360.543h1.395v-1.676h-1.395zm0 0"/></defs><g clip-path="url(#V)" class="B C D E F"><use xlink:href="#Gb"/></g><g clip-path="url(#W)" class="B C D E F"><path d="M61.188 360.543h1.395v-.02h-1.395zm0 0"/></g><g clip-path="url(#X)" class="F"><use xlink:href="#Gc"/></g><g clip-path="url(#Y)" class="B C D E G"><use xlink:href="#Gc"/></g><g clip-path="url(#Z)" class="B C D E F"><path d="M63.973 360.543h1.395v-.02h-1.395zm0 0"/></g><g clip-path="url(#a)" class="B C D E F"><path d="M65.367 360.543h1.395v-.035h-1.395zm0 0"/></g><g clip-path="url(#b)" class="B C D E G"><path d="M66.762 360.543h1.39zm0 0"/></g><g clip-path="url(#c)" class="B C D E F"><path d="M68.152 360.543h1.395v-.02h-1.395zm0 0"/></g><g clip-path="url(#d)" class="B C D E F"><path d="M69.547 360.543h1.395v-.05h-1.395zm0 0"/></g><g clip-path="url(#e)" class="B C D E F"><path d="M70.94 360.543h1.39v-.02h-1.39zm0 0"/></g><g clip-path="url(#f)" class="B C D E F"><path d="M72.332 360.543h1.395v-.14h-1.395zm0 0"/></g><g clip-path="url(#g)" class="B C D E F"><path d="M73.727 360.543h1.395v-.172h-1.395zm0 0"/></g><g clip-path="url(#h)" class="B C D E F"><path d="M75.12 360.543h1.395v-.172H75.12zm0 0"/></g><g clip-path="url(#i)" class="B C D E F"><path d="M76.516 360.543h1.39v-.293h-1.39zm0 0"/></g><g clip-path="url(#j)" class="B C D E F"><path d="M77.906 360.543H79.3v-.47h-1.395zm0 0"/></g><g clip-path="url(#k)" class="B C D E F"><path d="M79.3 360.543h1.395v-.434H79.3zm0 0"/></g><g clip-path="url(#l)" class="F"><path d="M80.695 360.543h1.39v-.5h-1.39zm0 0"/></g><g clip-path="url(#m)" class="B C D E G"><path d="M80.695 360.543h1.39v-.5h-1.39zm0 0"/></g><g clip-path="url(#n)" class="B C D E F"><path d="M82.086 360.543h1.395v-1.004h-1.395zm0 0"/></g><g clip-path="url(#o)" class="B C D E F"><path d="M83.48 360.543h1.395v-1.66H83.48zm0 0"/></g><g clip-path="url(#p)" class="B C D E F"><path d="M84.875 360.543h1.39v-2.437h-1.39zm0 0"/></g><g clip-path="url(#q)" class="B C D E F"><path d="M86.266 360.543h1.395v-2.145h-1.395zm0 0"/></g><g clip-path="url(#r)" class="B C D E F"><path d="M87.66 360.543h1.395v-2.902H87.66zm0 0"/></g><g clip-path="url(#s)" class="B C D E F"><path d="M89.055 360.543h1.395v-4.062h-1.395zm0 0"/></g><g clip-path="url(#t)" class="B C D E F"><path d="M90.45 360.543h1.39v-4.2h-1.39zm0 0"/></g><g clip-path="url(#u)" class="B C D E F"><path d="M91.84 360.543h1.395v-5.062H91.84zm0 0"/></g><g clip-path="url(#v)" class="B C D E F"><path d="M93.234 360.543h1.395V352.8h-1.395zm0 0"/></g><g clip-path="url(#w)" class="B C D E F"><path d="M94.63 360.543h1.39v-9.16h-1.39zm0 0"/></g><g clip-path="url(#x)" class="F"><path d="M96.02 360.543h1.395v-9.54H96.02zm0 0"/></g><g clip-path="url(#y)" class="B C D E G"><path d="M96.02 360.543h1.395v-9.54H96.02zm0 0"/></g><g clip-path="url(#z)" class="F"><use xlink:href="#Gd"/></g><g clip-path="url(#AA)" class="B C D E G"><use xlink:href="#Gd"/></g><g clip-path="url(#AB)" class="B C D E F"><path d="M98.81 360.543h1.39v-15.465h-1.39zm0 0"/></g><g clip-path="url(#AC)" class="B C D E F"><path d="M100.2 360.543h1.395V342.5H100.2zm0 0"/></g><g clip-path="url(#AD)" class="F"><use xlink:href="#Ge"/></g><g clip-path="url(#AE)" class="B C D E G"><use xlink:href="#Ge"/></g><g clip-path="url(#AF)" class="B C D E F"><path d="M102.988 360.543h1.395V335.71h-1.395zm0 0"/></g><g clip-path="url(#AG)" class="B C D E F"><path d="M104.383 360.543h1.39v-24.04h-1.39zm0 0"/></g><g clip-path="url(#AH)" class="B C D E F"><path d="M105.773 360.543h1.395v-28.945h-1.395zm0 0"/></g><g clip-path="url(#AI)" class="B C D E F"><path d="M107.168 360.543h1.395v-33.61h-1.395zm0 0"/></g><g clip-path="url(#AJ)" class="F"><use xlink:href="#Gf"/></g><g clip-path="url(#AK)" class="B C D E G"><use xlink:href="#Gf"/></g><g clip-path="url(#AL)" class="B C D E F"><path d="M109.953 360.543h1.395v-39.71h-1.395zm0 0"/></g><g clip-path="url(#AM)" class="B C D E F"><path d="M111.348 360.543h1.395V315.94h-1.395zm0 0"/></g><g clip-path="url(#AN)" class="B C D E F"><path d="M112.742 360.543h1.39v-47.367h-1.39zm0 0"/></g><g clip-path="url(#AO)" class="F"><use xlink:href="#Gg"/></g><g clip-path="url(#AP)" class="B C D E G"><use xlink:href="#Gg"/></g><g clip-path="url(#AQ)" class="B C D E F"><path d="M115.527 360.543h1.395V298.73h-1.395zm0 0"/></g><g clip-path="url(#AR)" class="B C D E F"><path d="M116.922 360.543h1.39v-60.465h-1.39zm0 0"/></g><g clip-path="url(#AS)" class="B C D E F"><path d="M118.313 360.543h1.395v-64.766h-1.395zm0 0"/></g><g clip-path="url(#AT)" class="B C D E F"><path d="M119.707 360.543h1.395v-73.078h-1.395zm0 0"/></g><g clip-path="url(#AU)" class="B C D E F"><path d="M121.102 360.543h1.395V284.2h-1.395zm0 0"/></g><g clip-path="url(#AV)" class="B C D E F"><path d="M122.496 360.543h1.39v-81.547h-1.39zm0 0"/></g><g clip-path="url(#AW)" class="B C D E F"><path d="M123.887 360.543h1.395v-81.96h-1.395zm0 0"/></g><g clip-path="url(#AX)" class="B C D E F"><path d="M125.28 360.543h1.395V271.98h-1.395zm0 0"/></g><g clip-path="url(#AY)" class="B C D E F"><path d="M126.676 360.543h1.39v-92.69h-1.39zm0 0"/></g><g clip-path="url(#AZ)" class="B C D E F"><path d="M128.066 360.543h1.395v-89.148h-1.395zm0 0"/></g><g clip-path="url(#Aa)" class="B C D E F"><path d="M129.46 360.543h1.395V259.836h-1.395zm0 0"/></g><g clip-path="url(#Ab)" class="B C D E F"><path d="M130.855 360.543h1.39v-99.566h-1.39zm0 0"/></g><g clip-path="url(#Ac)" class="B C D E F"><path d="M132.246 360.543h1.395V256.898h-1.395zm0 0"/></g><g clip-path="url(#Ad)" class="B C D E F"><path d="M133.64 360.543h1.395V254.648h-1.395zm0 0"/></g><g clip-path="url(#Ae)" class="F"><use xlink:href="#Gh"/></g><g clip-path="url(#Af)" class="B C D E G"><use xlink:href="#Gh"/></g><g clip-path="url(#Ag)" class="B C D E F"><path d="M136.43 360.543h1.39v-110.21h-1.39zm0 0"/></g><g clip-path="url(#Ah)" class="B C D E F"><path d="M137.82 360.543h1.395V252.508h-1.395zm0 0"/></g><g clip-path="url(#Ai)" class="B C D E F"><path d="M139.215 360.543h1.395V249.57h-1.395zm0 0"/></g><g clip-path="url(#Aj)" class="F"><path d="M140.61 360.543H142V248.637h-1.39zm0 0"/></g><g clip-path="url(#Ak)" class="B C D E G"><path d="M140.61 360.543H142V248.637h-1.39zm0 0"/></g><g clip-path="url(#Al)" class="F"><path d="M142 360.543h1.395V250.6H142zm0 0"/></g><g clip-path="url(#Am)" class="B C D E G"><path d="M142 360.543h1.395V250.6H142zm0 0"/></g><g clip-path="url(#An)" class="B C D E F"><path d="M143.395 360.543h1.395V252.16h-1.395zm0 0"/></g><g clip-path="url(#Ao)" class="B C D E F"><path d="M144.79 360.543h1.39V250.66h-1.39zm0 0"/></g><g clip-path="url(#Ap)" class="B C D E F"><path d="M146.18 360.543h1.395V255.22h-1.395zm0 0"/></g><g clip-path="url(#Aq)" class="F"><use xlink:href="#Gi"/></g><g clip-path="url(#Ar)" class="B C D E G"><use xlink:href="#Gi"/></g><g clip-path="url(#As)" class="B C D E F"><path d="M148.97 360.543h1.395v-105.79h-1.395zm0 0"/></g><g clip-path="url(#At)" class="B C D E F"><path d="M150.363 360.543h1.39V253.578h-1.39zm0 0"/></g><g clip-path="url(#Au)" class="B C D E F"><path d="M151.754 360.543h1.395v-102.23h-1.395zm0 0"/></g><g clip-path="url(#Av)" class="B C D E F"><path d="M153.148 360.543h1.395V261.44h-1.395zm0 0"/></g><g clip-path="url(#Aw)" class="F"><use xlink:href="#Gj"/></g><g clip-path="url(#Ax)" class="B C D E G"><use xlink:href="#Gj"/></g><g clip-path="url(#Ay)" class="B C D E F"><path d="M155.934 360.543h1.395v-97.598h-1.395zm0 0"/></g><g clip-path="url(#Az)" class="B C D E F"><path d="M157.328 360.543h1.395V267.06h-1.395zm0 0"/></g><g clip-path="url(#BA)" class="B C D E F"><path d="M158.723 360.543h1.39v-92.156h-1.39zm0 0"/></g><g clip-path="url(#BB)" class="B C D E F"><path d="M160.113 360.543h1.395v-88.77h-1.395zm0 0"/></g><g clip-path="url(#BC)" class="B C D E F"><path d="M161.508 360.543h1.395v-88.75h-1.395zm0 0"/></g><g clip-path="url(#BD)" class="B C D E F"><path d="M162.902 360.543h1.395v-82.46h-1.395zm0 0"/></g><g clip-path="url(#BE)" class="B C D E F"><path d="M164.297 360.543h1.39v-80.078h-1.39zm0 0"/></g><g clip-path="url(#BF)" class="B C D E F"><path d="M165.688 360.543h1.395v-78.97h-1.395zm0 0"/></g><g clip-path="url(#BG)" class="B C D E F"><path d="M167.082 360.543h1.395v-75.9h-1.395zm0 0"/></g><g clip-path="url(#BH)" class="B C D E F"><path d="M168.477 360.543h1.39V288.57h-1.39zm0 0"/></g><g clip-path="url(#BI)" class="B C D E F"><path d="M169.867 360.543h1.395V290.18h-1.395zm0 0"/></g><g clip-path="url(#BJ)" class="B C D E F"><path d="M171.262 360.543h1.395v-63.56h-1.395zm0 0"/></g><g clip-path="url(#BK)" class="B C D E F"><path d="M172.656 360.543h1.39v-61.035h-1.39zm0 0"/></g><g clip-path="url(#BL)" class="F"><use xlink:href="#Gk"/></g><g clip-path="url(#BM)" class="B C D E G"><use xlink:href="#Gk"/></g><g clip-path="url(#BN)" class="B C D E F"><path d="M175.44 360.543h1.395v-52.738h-1.395zm0 0"/></g><g clip-path="url(#BO)" class="B C D E F"><path d="M176.836 360.543h1.39v-51.426h-1.39zm0 0"/></g><g clip-path="url(#BP)" class="B C D E F"><path d="M178.227 360.543h1.395v-52.047h-1.395zm0 0"/></g><g clip-path="url(#BQ)" class="B C D E F"><path d="M179.62 360.543h1.395v-47.227h-1.395zm0 0"/></g><g clip-path="url(#BR)" class="F"><use xlink:href="#Gl"/></g><g clip-path="url(#BS)" class="B C D E G"><use xlink:href="#Gl"/></g><g clip-path="url(#BT)" class="B C D E F"><path d="M182.4 360.543h1.39v-42.06h-1.39zm0 0"/></g><g clip-path="url(#BU)" class="B C D E F"><path d="M183.8 360.543h1.395v-39.625H183.8zm0 0"/></g><g clip-path="url(#BV)" class="B C D E F"><path d="M185.195 360.543h1.395v-39.898h-1.395zm0 0"/></g><g clip-path="url(#BW)" class="F"><path d="M186.6 360.543h1.39v-37.93h-1.39zm0 0"/></g><g clip-path="url(#BX)" class="B C D E G"><path d="M186.6 360.543h1.39v-37.93h-1.39zm0 0"/></g><g clip-path="url(#BY)" class="B C D E F"><path d="M187.98 360.543h1.395v-32.47h-1.395zm0 0"/></g><g clip-path="url(#BZ)" class="B C D E F"><path d="M189.375 360.543h1.395v-33.316h-1.395zm0 0"/></g><g clip-path="url(#Ba)" class="F"><use xlink:href="#Gm"/></g><g clip-path="url(#Bb)" class="B C D E G"><use xlink:href="#Gm"/></g><g clip-path="url(#Bc)" class="B C D E F"><path d="M192.16 360.543h1.395V331.29h-1.395zm0 0"/></g><g clip-path="url(#Bd)" class="B C D E F"><path d="M193.555 360.543h1.395v-28.27h-1.395zm0 0"/></g><g clip-path="url(#Be)" class="B C D E F"><path d="M194.95 360.543h1.395v-26.008h-1.395zm0 0"/></g><g clip-path="url(#Bf)" class="B C D E F"><path d="M196.344 360.543h1.39v-25.23h-1.39zm0 0"/></g><g clip-path="url(#Bg)" class="B C D E F"><path d="M197.734 360.543h1.395v-24.105h-1.395zm0 0"/></g><g clip-path="url(#Bh)" class="B C D E F"><path d="M199.13 360.543h1.395v-22.777h-1.395zm0 0"/></g><g clip-path="url(#Bi)" class="B C D E F"><path d="M200.523 360.543h1.39v-22.12h-1.39zm0 0"/></g><g clip-path="url(#Bj)" class="B C D E F"><use xlink:href="#Gn"/></g><g clip-path="url(#Bk)" class="B C D E F"><path d="M203.31 360.543h1.395v-20.426h-1.395zm0 0"/></g><g clip-path="url(#Bl)" class="B C D E F"><path d="M204.703 360.543h1.39V340.4h-1.39zm0 0"/></g><g clip-path="url(#Bm)" class="B C D E F"><path d="M206.094 360.543h1.395v-18.906h-1.395zm0 0"/></g><g clip-path="url(#Bn)" class="B C D E F"><path d="M207.488 360.543h1.395V342.64h-1.395zm0 0"/></g><g clip-path="url(#Bo)" class="B C D E F"><path d="M208.883 360.543h1.395v-18.715h-1.395zm0 0"/></g><g clip-path="url(#Bp)" class="B C D E F"><path d="M210.277 360.543h1.39v-18.16h-1.39zm0 0"/></g><g clip-path="url(#Bq)" class="F"><use xlink:href="#Go"/></g><g clip-path="url(#Br)" class="B C D E G"><use xlink:href="#Go"/></g><g clip-path="url(#Bs)" class="B C D E F"><path d="M213.063 360.543h1.395v-17.625h-1.395zm0 0"/></g><g clip-path="url(#Bt)" class="B C D E F"><path d="M214.457 360.543h1.39V342.97h-1.39zm0 0"/></g><g clip-path="url(#Bu)" class="B C D E F"><path d="M215.848 360.543h1.395v-17.56h-1.395zm0 0"/></g><g clip-path="url(#Bv)" class="B C D E F"><path d="M217.242 360.543h1.395v-17.816h-1.395zm0 0"/></g><g clip-path="url(#Bw)" class="B C D E F"><path d="M218.637 360.543h1.39v-18.56h-1.39zm0 0"/></g><g clip-path="url(#Bx)" class="F"><use xlink:href="#Gp"/></g><g clip-path="url(#By)" class="B C D E G"><use xlink:href="#Gp"/></g><g clip-path="url(#Bz)" class="B C D E F"><path d="M221.422 360.543h1.395V342.07h-1.395zm0 0"/></g><g clip-path="url(#CA)" class="B C D E F"><path d="M222.816 360.543h1.395v-18.437h-1.395zm0 0"/></g><g clip-path="url(#CB)" class="B C D E F"><path d="M224.21 360.543h1.39v-19.906h-1.39zm0 0"/></g><g clip-path="url(#CC)" class="F"><path d="M225.602 360.543h1.395V339.53h-1.395zm0 0"/></g><g clip-path="url(#CD)" class="B C D E G"><path d="M225.602 360.543h1.395V339.53h-1.395zm0 0"/></g><g clip-path="url(#CE)" class="B C D E F"><path d="M226.996 360.543h1.395V339.29h-1.395zm0 0"/></g><g clip-path="url(#CF)" class="B C D E F"><path d="M228.39 360.543h1.39v-22.777h-1.39zm0 0"/></g><g clip-path="url(#CG)" class="B C D E F"><path d="M229.78 360.543h1.395v-23.207h-1.395zm0 0"/></g><g clip-path="url(#CH)" class="B C D E F"><path d="M231.176 360.543h1.395v-26.008h-1.395zm0 0"/></g><g clip-path="url(#CI)" class="F"><path d="M232.57 360.543h1.39v-26.37h-1.39zm0 0"/></g><g clip-path="url(#CJ)" class="B C D E G"><path d="M232.57 360.543h1.39v-26.37h-1.39zm0 0"/></g><g clip-path="url(#CK)" class="B C D E F"><path d="M233.96 360.543h1.395v-27.27h-1.395zm0 0"/></g><g clip-path="url(#CL)" class="B C D E F"><path d="M235.355 360.543h1.395v-28.72h-1.395zm0 0"/></g><g clip-path="url(#CM)" class="B C D E F"><path d="M236.75 360.543h1.39v-31.227h-1.39zm0 0"/></g><g clip-path="url(#CN)" class="B C D E F"><path d="M238.14 360.543h1.395v-33.195h-1.395zm0 0"/></g><g clip-path="url(#CO)" class="F"><use xlink:href="#Gq"/></g><g clip-path="url(#CP)" class="B C D E G"><use xlink:href="#Gq"/></g><g clip-path="url(#CQ)" class="B C D E F"><path d="M240.93 360.543h1.395v-40.055h-1.395zm0 0"/></g><g clip-path="url(#CR)" class="B C D E F"><path d="M242.324 360.543h1.39V318.5h-1.39zm0 0"/></g><g clip-path="url(#CS)" class="B C D E F"><path d="M243.715 360.543h1.395v-46.05h-1.395zm0 0"/></g><g clip-path="url(#CT)" class="B C D E F"><path d="M245.11 360.543h1.395V307.63h-1.395zm0 0"/></g><g clip-path="url(#CU)" class="B C D E F"><path d="M246.504 360.543h1.39V305.6h-1.39zm0 0"/></g><g clip-path="url(#CV)" class="B C D E F"><path d="M247.895 360.543h1.395v-63.418h-1.395zm0 0"/></g><g clip-path="url(#CW)" class="B C D E F"><path d="M249.29 360.543h1.395v-69.19h-1.395zm0 0"/></g><g clip-path="url(#CX)" class="B C D E F"><path d="M250.684 360.543h1.39V288.62h-1.39zm0 0"/></g><g clip-path="url(#CY)" class="B C D E F"><path d="M252.074 360.543h1.395v-84.05h-1.395zm0 0"/></g><g clip-path="url(#CZ)" class="B C D E F"><path d="M253.47 360.543h1.395v-89.79h-1.395zm0 0"/></g><g clip-path="url(#Ca)" class="B C D E F"><path d="M254.863 360.543h1.395v-95.437h-1.395zm0 0"/></g><g clip-path="url(#Cb)" class="F"><use xlink:href="#Gr"/></g><g clip-path="url(#Cc)" class="B C D E G"><use xlink:href="#Gr"/></g><g clip-path="url(#Cd)" class="B C D E F"><path d="M257.648 360.543h1.395v-118.75h-1.395zm0 0"/></g><g clip-path="url(#Ce)" class="F"><use xlink:href="#Gs"/></g><g clip-path="url(#Cf)" class="B C D E G"><use xlink:href="#Gs"/></g><g clip-path="url(#Cg)" class="B C D E F"><path d="M260.438 360.543h1.39V215.305h-1.39zm0 0"/></g><g clip-path="url(#Ch)" class="B C D E F"><path d="M261.828 360.543h1.395v-153.38h-1.395zm0 0"/></g><g clip-path="url(#Ci)" class="B C D E F"><path d="M263.223 360.543h1.395V190.87h-1.395zm0 0"/></g><g clip-path="url(#Cj)" class="B C D E F"><path d="M264.617 360.543h1.39v-181.25h-1.39zm0 0"/></g><g clip-path="url(#Ck)" class="F"><use xlink:href="#Gt"/></g><g clip-path="url(#Cl)" class="B C D E G"><use xlink:href="#Gt"/></g><g clip-path="url(#Cm)" class="B C D E F"><path d="M267.402 360.543h1.395V150.125h-1.395zm0 0"/></g><g clip-path="url(#Cn)" class="B C D E F"><path d="M268.797 360.543h1.395v-221.81h-1.395zm0 0"/></g><g clip-path="url(#Co)" class="B C D E F"><path d="M270.19 360.543h1.39v-236.89h-1.39zm0 0"/></g><g clip-path="url(#Cp)" class="F"><use xlink:href="#Gu"/></g><g clip-path="url(#Cq)" class="B C D E G"><use xlink:href="#Gu"/></g><g clip-path="url(#Cr)" class="B C D E F"><path d="M272.977 360.543h1.395v-258.32h-1.395zm0 0"/></g><g clip-path="url(#Cs)" class="B C D E F"><path d="M274.37 360.543h1.39V89.746h-1.39zm0 0"/></g><g clip-path="url(#Ct)" class="B C D E F"><path d="M275.762 360.543h1.395V74.473h-1.395zm0 0"/></g><g clip-path="url(#Cu)" class="B C D E F"><path d="M277.156 360.543h1.395V60.75h-1.395zm0 0"/></g><g clip-path="url(#Cv)" class="B C D E F"><path d="M278.55 360.543h1.39V68.215h-1.39zm0 0"/></g><g clip-path="url(#Cw)" class="B C D E F"><path d="M279.94 360.543h1.395V58.262h-1.395zm0 0"/></g><g clip-path="url(#Cx)" class="F"><path d="M281.336 360.543h1.395V49h-1.395zm0 0"/></g><g clip-path="url(#Cy)" class="B C D E G"><path d="M281.336 360.543h1.395V49h-1.395zm0 0"/></g><g clip-path="url(#Cz)" class="B C D E F"><path d="M282.73 360.543h1.395V43.645h-1.395zm0 0"/></g><g clip-path="url(#DA)" class="B C D E F"><path d="M284.125 360.543h1.39V49.918h-1.39zm0 0"/></g><g clip-path="url(#DB)" class="B C D E F"><path d="M285.516 360.543h1.395V51.21h-1.395zm0 0"/></g><g clip-path="url(#DC)" class="F"><path d="M286.9 360.543h1.395V52.023H286.9zm0 0"/></g><g clip-path="url(#DD)" class="B C D E G"><path d="M286.9 360.543h1.395V52.023H286.9zm0 0"/></g><g clip-path="url(#DE)" class="B C D E F"><path d="M288.305 360.543h1.39V63.238h-1.39zm0 0"/></g><g clip-path="url(#DF)" class="B C D E F"><path d="M289.695 360.543h1.395V76.44h-1.395zm0 0"/></g><g clip-path="url(#DG)" class="B C D E F"><path d="M291.1 360.543h1.395V74.266H291.1zm0 0"/></g><g clip-path="url(#DH)" class="B C D E F"><path d="M292.484 360.543h1.39V96.398h-1.39zm0 0"/></g><g clip-path="url(#DI)" class="B C D E F"><path d="M293.875 360.543h1.395V107.82h-1.395zm0 0"/></g><g clip-path="url(#DJ)" class="B C D E F"><path d="M295.27 360.543h1.395v-240.78h-1.395zm0 0"/></g><g clip-path="url(#DK)" class="B C D E F"><path d="M296.664 360.543h1.39V138.2h-1.39zm0 0"/></g><g clip-path="url(#DL)" class="B C D E F"><path d="M298.055 360.543h1.395V150.105h-1.395zm0 0"/></g><g clip-path="url(#DM)" class="B C D E F"><path d="M299.45 360.543h1.395V156.758h-1.395zm0 0"/></g><g clip-path="url(#DN)" class="B C D E F"><path d="M300.844 360.543h1.395v-181.87h-1.395zm0 0"/></g><g clip-path="url(#DO)" class="B C D E F"><path d="M302.238 360.543h1.39v-165.13h-1.39zm0 0"/></g><g clip-path="url(#DP)" class="B C D E F"><path d="M303.63 360.543h1.395V209.617h-1.395zm0 0"/></g><g clip-path="url(#DQ)" class="F"><use xlink:href="#Gv"/></g><g clip-path="url(#DR)" class="B C D E G"><use xlink:href="#Gv"/></g><g clip-path="url(#DS)" class="B C D E F"><path d="M306.418 360.543h1.39V237.82h-1.39zm0 0"/></g><g clip-path="url(#DT)" class="F"><path d="M307.81 360.543h1.395V250h-1.395zm0 0"/></g><g clip-path="url(#DU)" class="B C D E G"><path d="M307.81 360.543h1.395V250h-1.395zm0 0"/></g><g clip-path="url(#DV)" class="B C D E F"><path d="M309.203 360.543h1.395v-96.44h-1.395zm0 0"/></g><g clip-path="url(#DW)" class="F"><use xlink:href="#Gw"/></g><g clip-path="url(#DX)" class="B C D E G"><use xlink:href="#Gw"/></g><g clip-path="url(#DY)" class="B C D E F"><path d="M311.988 360.543h1.395V285.4h-1.395zm0 0"/></g><g clip-path="url(#DZ)" class="B C D E F"><path d="M313.383 360.543h1.395v-66.44h-1.395zm0 0"/></g><g clip-path="url(#Da)" class="B C D E F"><path d="M314.777 360.543h1.395v-57.44h-1.395zm0 0"/></g><g clip-path="url(#Db)" class="B C D E F"><path d="M316.172 360.543h1.39v-51.96h-1.39zm0 0"/></g><g clip-path="url(#Dc)" class="F"><use xlink:href="#Gx"/></g><g clip-path="url(#Dd)" class="B C D E G"><use xlink:href="#Gx"/></g><g clip-path="url(#De)" class="B C D E F"><path d="M318.957 360.543h1.395V318.69h-1.395zm0 0"/></g><g clip-path="url(#Df)" class="B C D E F"><path d="M320.352 360.543h1.39v-36.48h-1.39zm0 0"/></g><g clip-path="url(#Dg)" class="B C D E F"><path d="M321.742 360.543h1.395V328.1h-1.395zm0 0"/></g><g clip-path="url(#Dh)" class="B C D E F"><path d="M323.137 360.543h1.395v-26.285h-1.395zm0 0"/></g><g clip-path="url(#Di)" class="B C D E F"><path d="M324.53 360.543h1.39v-25.11h-1.39zm0 0"/></g><g clip-path="url(#Dj)" class="B C D E F"><path d="M325.922 360.543h1.395v-22.207h-1.395zm0 0"/></g><g clip-path="url(#Dk)" class="B C D E F"><path d="M327.316 360.543h1.395v-17.73h-1.395zm0 0"/></g><g clip-path="url(#Dl)" class="B C D E F"><path d="M328.71 360.543h1.395v-17.28h-1.395zm0 0"/></g><g clip-path="url(#Dm)" class="B C D E F"><path d="M330.105 360.543h1.39V344.78h-1.39zm0 0"/></g><g clip-path="url(#Dn)" class="B C D E F"><path d="M331.496 360.543h1.395v-12.305h-1.395zm0 0"/></g><g clip-path="url(#Do)" class="B C D E F"><path d="M332.89 360.543h1.395v-10.87h-1.395zm0 0"/></g><g clip-path="url(#Dp)" class="B C D E F"><path d="M334.285 360.543h1.39v-9.988h-1.39zm0 0"/></g><g clip-path="url(#Dq)" class="B C D E F"><path d="M335.676 360.543h1.395v-9.367h-1.395zm0 0"/></g><g clip-path="url(#Dr)" class="B C D E F"><path d="M337.07 360.543h1.395v-8.19h-1.395zm0 0"/></g><g clip-path="url(#Ds)" class="B C D E F"><path d="M338.465 360.543h1.39v-8.348h-1.39zm0 0"/></g><g clip-path="url(#Dt)" class="B C D E F"><path d="M339.855 360.543h1.395v-6.93h-1.395zm0 0"/></g><g clip-path="url(#Du)" class="B C D E F"><path d="M341.25 360.543h1.395v-6.566h-1.395zm0 0"/></g><g clip-path="url(#Dv)" class="B C D E F"><path d="M342.645 360.543h1.39v-6.187h-1.39zm0 0"/></g><g clip-path="url(#Dw)" class="F"><use xlink:href="#Gy"/></g><g clip-path="url(#Dx)" class="B C D E G"><use xlink:href="#Gy"/></g><g clip-path="url(#Dy)" class="B C D E F"><path d="M345.43 360.543h1.395v-4.805h-1.395zm0 0"/></g><g clip-path="url(#Dz)" class="B C D E F"><path d="M346.824 360.543h1.395v-4.82h-1.395zm0 0"/></g><g clip-path="url(#EA)" class="B C D E F"><path d="M348.22 360.543h1.39v-4.27h-1.39zm0 0"/></g><g clip-path="url(#EB)" class="B C D E F"><path d="M349.61 360.543h1.395v-4.027h-1.395zm0 0"/></g><g clip-path="url(#EC)" class="F"><use xlink:href="#Gz"/></g><g clip-path="url(#ED)" class="B C D E G"><use xlink:href="#Gz"/></g><g clip-path="url(#EE)" class="B C D E F"><path d="M352.398 360.543h1.39v-4.113h-1.39zm0 0"/></g><g clip-path="url(#EF)" class="F"><use xlink:href="#HA"/></g><g clip-path="url(#EG)" class="B C D E G"><use xlink:href="#HA"/></g><g clip-path="url(#EH)" class="B C D E F"><path d="M355.184 360.543h1.395v-4.13h-1.395zm0 0"/></g><g clip-path="url(#EI)" class="F"><use xlink:href="#HB"/></g><g clip-path="url(#EJ)" class="B C D E G"><use xlink:href="#HB"/></g><g clip-path="url(#EK)" class="B C D E F"><path d="M357.97 360.543h1.395v-3.855h-1.395zm0 0"/></g><g clip-path="url(#EL)" class="B C D E F"><path d="M359.363 360.543h1.395v-3.25h-1.395zm0 0"/></g><g clip-path="url(#EM)" class="F"><use xlink:href="#HC"/></g><g clip-path="url(#EN)" class="B C D E G"><use xlink:href="#HC"/></g><g clip-path="url(#EO)" class="B C D E F"><path d="M362.152 360.543h1.39v-3.473h-1.39zm0 0"/></g><g clip-path="url(#EP)" class="B C D E F"><path d="M363.543 360.543h1.395v-3.37h-1.395zm0 0"/></g><g clip-path="url(#EQ)" class="B C D E F"><path d="M364.938 360.543h1.395v-3.613h-1.395zm0 0"/></g><g clip-path="url(#ER)" class="B C D E F"><path d="M366.332 360.543h1.39v-3.648h-1.39zm0 0"/></g><g clip-path="url(#ES)" class="B C D E F"><path d="M367.723 360.543h1.395v-3.8h-1.395zm0 0"/></g><g clip-path="url(#ET)" class="B C D E F"><path d="M369.117 360.543h1.395v-3.715h-1.395zm0 0"/></g><g clip-path="url(#EU)" class="B C D E F"><path d="M370.512 360.543h1.39v-4.078h-1.39zm0 0"/></g><g clip-path="url(#EV)" class="B C D E F"><path d="M371.902 360.543h1.395v-3.957h-1.395zm0 0"/></g><g clip-path="url(#EW)" class="B C D E F"><path d="M373.297 360.543h1.395v-4.305h-1.395zm0 0"/></g><g clip-path="url(#EX)" class="B C D E F"><path d="M374.69 360.543h1.395v-4.355h-1.395zm0 0"/></g><g clip-path="url(#EY)" class="B C D E F"><path d="M376.086 360.543h1.39v-4.44h-1.39zm0 0"/></g><g clip-path="url(#EZ)" class="B C D E F"><path d="M377.477 360.543h1.395v-4.734h-1.395zm0 0"/></g><g clip-path="url(#Ea)" class="B C D E F"><path d="M378.87 360.543h1.395v-4.44h-1.395zm0 0"/></g><g clip-path="url(#Eb)" class="B C D E F"><path d="M380.266 360.543h1.39v-5.824h-1.39zm0 0"/></g><g clip-path="url(#Ec)" class="B C D E F"><path d="M381.656 360.543h1.395v-5.754h-1.395zm0 0"/></g><g clip-path="url(#Ed)" class="B C D E F"><path d="M383.05 360.543h1.395v-6.187h-1.395zm0 0"/></g><g clip-path="url(#Ee)" class="B C D E F"><path d="M384.445 360.543h1.39v-6.95h-1.39zm0 0"/></g><g clip-path="url(#Ef)" class="B C D E F"><path d="M385.836 360.543h1.395v-7.258h-1.395zm0 0"/></g><g clip-path="url(#Eg)" class="B C D E F"><path d="M387.23 360.543h1.395v-8.19h-1.395zm0 0"/></g><g clip-path="url(#Eh)" class="B C D E F"><path d="M388.625 360.543h1.395v-7.55h-1.395zm0 0"/></g><g clip-path="url(#Ei)" class="F"><path d="M390.02 360.543h1.39v-8.625h-1.39zm0 0"/></g><g clip-path="url(#Ej)" class="B C D E G"><path d="M390.02 360.543h1.39v-8.625h-1.39zm0 0"/></g><g clip-path="url(#Ek)" class="B C D E F"><path d="M391.4 360.543h1.395v-9.66H391.4zm0 0"/></g><g clip-path="url(#El)" class="B C D E F"><path d="M392.805 360.543h1.395v-10.715h-1.395zm0 0"/></g><g clip-path="url(#Em)" class="B C D E F"><path d="M394.2 360.543h1.39v-10.957h-1.39zm0 0"/></g><g clip-path="url(#En)" class="F"><path d="M395.6 360.543h1.395v-11.89H395.6zm0 0"/></g><g clip-path="url(#Eo)" class="B C D E G"><path d="M395.6 360.543h1.395v-11.89H395.6zm0 0"/></g><g clip-path="url(#Ep)" class="B C D E F"><path d="M396.984 360.543h1.395v-12.46h-1.395zm0 0"/></g><g clip-path="url(#Eq)" class="B C D E F"><path d="M398.38 360.543h1.39v-13.36h-1.39zm0 0"/></g><g clip-path="url(#Er)" class="B C D E F"><path d="M399.77 360.543h1.395v-15.016h-1.395zm0 0"/></g><g clip-path="url(#Es)" class="B C D E F"><path d="M401.164 360.543h1.395v-15.95h-1.395zm0 0"/></g><g clip-path="url(#Et)" class="B C D E F"><path d="M402.56 360.543h1.39v-17.28h-1.39zm0 0"/></g><g clip-path="url(#Eu)" class="B C D E F"><path d="M403.95 360.543h1.395v-18.06h-1.395zm0 0"/></g><g clip-path="url(#Ev)" class="B C D E F"><path d="M405.344 360.543h1.395V342.45h-1.395zm0 0"/></g><g clip-path="url(#Ew)" class="B C D E F"><path d="M406.738 360.543h1.395v-19.96h-1.395zm0 0"/></g><g clip-path="url(#Ex)" class="B C D E F"><path d="M408.133 360.543h1.39v-20.32h-1.39zm0 0"/></g><g clip-path="url(#Ey)" class="B C D E F"><path d="M409.523 360.543h1.395v-22.187h-1.395zm0 0"/></g><g clip-path="url(#Ez)" class="B C D E F"><path d="M410.918 360.543h1.395V337.11h-1.395zm0 0"/></g><g clip-path="url(#FA)" class="B C D E F"><path d="M412.313 360.543h1.39v-24.695h-1.39zm0 0"/></g><g clip-path="url(#FB)" class="B C D E F"><path d="M413.703 360.543h1.395V334.64h-1.395zm0 0"/></g><g clip-path="url(#FC)" class="B C D E F"><path d="M415.098 360.543h1.395v-27.875h-1.395zm0 0"/></g><g clip-path="url(#FD)" class="B C D E F"><path d="M416.492 360.543h1.39v-28.168h-1.39zm0 0"/></g><g clip-path="url(#FE)" class="B C D E F"><path d="M417.883 360.543h1.395v-29.445h-1.395zm0 0"/></g><g clip-path="url(#FF)" class="B C D E F"><path d="M419.277 360.543h1.395v-29.375h-1.395zm0 0"/></g><g clip-path="url(#FG)" class="B C D E F"><path d="M420.672 360.543h1.395v-31.328h-1.395zm0 0"/></g><g clip-path="url(#FH)" class="B C D E F"><path d="M422.066 360.543h1.39v-35.44h-1.39zm0 0"/></g><g clip-path="url(#FI)" class="B C D E F"><path d="M423.457 360.543h1.395v-33.367h-1.395zm0 0"/></g><g clip-path="url(#FJ)" class="B C D E F"><path d="M424.852 360.543h1.395V324.27h-1.395zm0 0"/></g><g clip-path="url(#FK)" class="B C D E F"><path d="M426.246 360.543h1.39v-37.48h-1.39zm0 0"/></g><g clip-path="url(#FL)" class="B C D E F"><path d="M427.637 360.543h1.395V324.48h-1.395zm0 0"/></g><g clip-path="url(#FM)" class="F"><use xlink:href="#HD"/></g><g clip-path="url(#FN)" class="B C D E G"><use xlink:href="#HD"/></g><g clip-path="url(#FO)" class="B C D E F"><path d="M430.426 360.543h1.39V321.8h-1.39zm0 0"/></g><g clip-path="url(#FP)" class="B C D E F"><path d="M431.816 360.543h1.395V324.53h-1.395zm0 0"/></g><g clip-path="url(#FQ)" class="B C D E F"><path d="M433.21 360.543h1.395v-33.195h-1.395zm0 0"/></g><g clip-path="url(#FR)" class="F"><use xlink:href="#HE"/></g><g clip-path="url(#FS)" class="B C D E G"><use xlink:href="#HE"/></g><g clip-path="url(#FT)" class="F"><path d="M436 360.543h1.39V321.75H436zm0 0"/></g><g clip-path="url(#FU)" class="B C D E G"><path d="M436 360.543h1.39V321.75H436zm0 0"/></g><g clip-path="url(#FV)" class="B C D E F"><path d="M437.39 360.543h1.395v-37.86h-1.395zm0 0"/></g><g clip-path="url(#FW)" class="B C D E F"><path d="M438.785 360.543h1.395v-35.406h-1.395zm0 0"/></g><g clip-path="url(#FX)" class="F"><path d="M440.18 360.543h1.39V324.03h-1.39zm0 0"/></g><g clip-path="url(#FY)" class="B C D E G"><path d="M440.18 360.543h1.39V324.03h-1.39zm0 0"/></g><g clip-path="url(#FZ)" class="F"><use xlink:href="#HF"/></g><g clip-path="url(#Fa)" class="B C D E G"><use xlink:href="#HF"/></g><g clip-path="url(#Fb)" class="B C D E F"><path d="M442.965 360.543h1.395v-37.31h-1.395zm0 0"/></g><g clip-path="url(#Fc)" class="B C D E F"><path d="M444.36 360.543h1.39v-36.945h-1.39zm0 0"/></g><g clip-path="url(#Fd)" class="B C D E F"><path d="M445.75 360.543h1.395v-31.328h-1.395zm0 0"/></g><g clip-path="url(#Fe)" class="B C D E F"><path d="M447.145 360.543h1.395v-32.71h-1.395zm0 0"/></g><g clip-path="url(#Ff)" class="B C D E F"><path d="M448.54 360.543h1.395v-28.617h-1.395zm0 0"/></g><g clip-path="url(#Fg)" class="B C D E F"><path d="M449.934 360.543h1.39v-31.57h-1.39zm0 0"/></g><g clip-path="url(#Fh)" class="B C D E F"><path d="M451.324 360.543h1.395v-27.37h-1.395zm0 0"/></g><g clip-path="url(#Fi)" class="B C D E F"><path d="M452.72 360.543h1.395v-26.437h-1.395zm0 0"/></g><g clip-path="url(#Fj)" class="B C D E F"><path d="M454.113 360.543h1.39v-24.937h-1.39zm0 0"/></g><g clip-path="url(#Fk)" class="B C D E F"><path d="M455.504 360.543h1.395v-21.93h-1.395zm0 0"/></g><g clip-path="url(#Fl)" class="B C D E F"><path d="M456.898 360.543h1.395v-21.187h-1.395zm0 0"/></g><g clip-path="url(#Fm)" class="B C D E F"><path d="M458.293 360.543h1.39V342.5h-1.39zm0 0"/></g><g clip-path="url(#Fn)" class="B C D E F"><path d="M459.684 360.543h1.395v-18.3h-1.395zm0 0"/></g><g clip-path="url(#Fo)" class="B C D E F"><path d="M461.078 360.543h1.395V344.54h-1.395zm0 0"/></g><g clip-path="url(#Fp)" class="B C D E F"><path d="M462.473 360.543h1.39v-14.086h-1.39zm0 0"/></g><g clip-path="url(#Fq)" class="B C D E F"><path d="M463.863 360.543h1.395V348.36h-1.395zm0 0"/></g><g clip-path="url(#Fr)" class="B C D E F"><path d="M465.258 360.543h1.395v-11.355h-1.395zm0 0"/></g><g clip-path="url(#Fs)" class="B C D E F"><path d="M466.652 360.543h1.395v-10.645h-1.395zm0 0"/></g><g clip-path="url(#Ft)" class="F"><use xlink:href="#HG"/></g><g clip-path="url(#Fu)" class="B C D E G"><use xlink:href="#HG"/></g><g clip-path="url(#Fv)" class="B C D E F"><path d="M469.438 360.543h1.395v-7.863h-1.395zm0 0"/></g><g clip-path="url(#Fw)" class="B C D E F"><path d="M470.832 360.543h1.395v-6.81h-1.395zm0 0"/></g><g clip-path="url(#Fx)" class="F"><use xlink:href="#HH"/></g><g clip-path="url(#Fy)" class="B C D E G"><use xlink:href="#HH"/></g><g clip-path="url(#Fz)" class="B C D E F"><path d="M473.617 360.543h1.395v-4.148h-1.395zm0 0"/></g><g clip-path="url(#GA)" class="F"><use xlink:href="#HI"/></g><g clip-path="url(#GB)" class="B C D E G"><use xlink:href="#HI"/></g><g clip-path="url(#GC)" class="B C D E F"><path d="M476.406 360.543h1.39v-2.473h-1.39zm0 0"/></g><g clip-path="url(#GD)" class="F"><use xlink:href="#HJ"/></g><g clip-path="url(#GE)" class="B C D E G"><use xlink:href="#HJ"/></g><g clip-path="url(#GF)" class="B C D E F"><path d="M479.19 360.543h1.395v-1.832h-1.395zm0 0"/></g><g clip-path="url(#GG)" class="F"><use xlink:href="#HK"/></g><g clip-path="url(#GH)" class="B C D E G"><use xlink:href="#HK"/></g><g clip-path="url(#GI)" class="B C D E F"><path d="M481.98 360.543h1.39v-1.383h-1.39zm0 0"/></g><g clip-path="url(#GJ)" class="B C D E F"><path d="M483.37 360.543h1.395v-1.14h-1.395zm0 0"/></g><g clip-path="url(#GK)" class="B C D E F"><path d="M484.766 360.543h1.395v-.414h-1.395zm0 0"/></g><g clip-path="url(#GL)" class="F"><path d="M486.16 360.543h1.39v-.535h-1.39zm0 0"/></g><g clip-path="url(#GM)" class="B C D E G"><path d="M486.16 360.543h1.39v-.535h-1.39zm0 0"/></g><g clip-path="url(#GN)" class="B C D E F"><path d="M487.55 360.543h1.395v-.727h-1.395zm0 0"/></g><g clip-path="url(#GO)" class="B C D E F"><path d="M488.945 360.543h1.395v-.363h-1.395zm0 0"/></g><g clip-path="url(#GP)" class="B C D E F"><path d="M490.34 360.543h1.39v-.348h-1.39zm0 0"/></g><g clip-path="url(#GQ)" class="B C D E F"><path d="M491.73 360.543h1.395v-.312h-1.395zm0 0"/></g><g clip-path="url(#GR)" class="B C D E F"><path d="M493.125 360.543h1.395v-.07h-1.395zm0 0"/></g><g clip-path="url(#GS)" class="B C D E F"><path d="M494.52 360.543h1.395v-.12h-1.395zm0 0"/></g><g clip-path="url(#GT)" class="B C D E F"><path d="M495.914 360.543h1.39v-.02h-1.39zm0 0"/></g><g clip-path="url(#GU)" class="B C D E F"><path d="M497.305 360.543h1.395v-.035h-1.395zm0 0"/></g><g clip-path="url(#GV)" class="B C D E F"><path d="M498.7 360.543h1.395v-.05H498.7zm0 0"/></g><g clip-path="url(#GW)" class="B C D E F"><path d="M500.094 360.543h1.39v-.086h-1.39zm0 0"/></g><g clip-path="url(#GX)" class="B C D E G"><path d="M501.484 360.543h1.395zm0 0"/></g><g clip-path="url(#GY)" class="B C D E G"><path d="M502.88 360.543h1.395zm0 0"/></g><g clip-path="url(#GZ)" class="B C D E G"><path d="M504.273 360.543h1.39zm0 0"/></g><g clip-path="url(#Ga)" class="B C G L M"><path d="M59.793 360.54l12.96-.117 4.914-.25 3.13-.348 2.68-.508 2.234-.64 2.234-.898 1.79-.96 1.785-1.215 1.79-1.512 1.785-1.852 1.79-2.223 1.785-2.62 1.79-3.047 1.79-3.477 1.785-3.9 2.234-5.46 2.234-6.047 2.68-7.895 3.578-11.254 7.148-22.758 2.68-7.828 2.234-5.97 2.234-5.355 1.79-3.78 1.785-3.297 1.79-2.793 1.34-1.75 1.34-1.45 1.34-1.148 1.344-.844 1.34-.543 1.34-.246 1.34.05 1.34.336 1.34.613 1.344.883 1.34 1.14 1.34 1.383 1.79 2.207 1.785 2.578 2.234 3.7 2.234 4.145 2.68 5.45 3.578 7.824 11.617 25.977 3.125 6.285 2.684 4.96 2.68 4.527 2.684 4.07 2.68 3.61 2.234 2.66 2.234 2.355 2.234 2.066 2.234 1.785 2.234 1.527 2.234 1.28 2.234 1.047 2.234.824 2.234.61 2.234.406 2.23.2 2.234-.012 2.234-.227 2.234-.46 2.234-.71 2.234-.992 1.79-1.023 1.785-1.25 1.79-1.508 1.79-1.8 1.785-2.137 1.79-2.516 1.785-2.953 1.79-3.453 1.785-4.023 1.79-4.668 1.79-5.398 1.785-6.223 1.79-7.14 1.785-8.145 1.79-9.238 1.785-10.406 1.79-11.637 1.79-12.887 2.234-17.852 2.234-19.656 2.68-25.555 8.938-87.55 1.785-14.53 1.34-9.47 1.344-8.004 1.34-6.352.895-3.238.89-2.39.895-1.512.45-.418.445-.195.445.035.45.266.445.492.45.723.89 2.125.895 3.02.895 3.887.895 4.727 1.34 8.555 1.34 10.164 1.79 15.688 2.234 22.266 3.125 34.074 4.918 53.89 2.68 26.844 2.234 20.125 1.79 14.45 1.785 12.93 1.79 11.43 1.785 9.992 1.79 8.656 1.785 7.434 1.79 6.332 1.79 5.367 1.785 4.52 1.79 3.79 1.785 3.168 1.79 2.645 1.785 2.195 1.79 1.824 1.79 1.512 1.785 1.258 2.234 1.27 2.234 1.004 2.68.93 2.684.69 3.13.582 3.574.438 4.02.273 4.47.078 4.914-.148 4.47-.355 4.023-.52 4.02-.746 3.578-.887 3.125-.984 3.13-1.207 3.13-1.45 3.13-1.715 3.125-1.992 3.13-2.273 3.574-2.906 4.023-3.594 11.617-10.652 2.68-2.055 2.234-1.465 2.234-1.184 1.79-.72 1.785-.496 1.79-.258 1.79-.004 1.785.258 1.79.52 1.785.777 1.79 1.03 1.785 1.273 2.234 1.902 2.234 2.203 2.684 2.97 3.574 4.31 7.148 8.738 3.13 3.426 2.68 2.6 2.234 1.88 2.234 1.605 2.234 1.344 2.234 1.086 2.234.86 2.68.77 2.684.54 3.125.406 4.023.29 5.81.164 8.492.05" stroke-width="2"/></g><path d="M64.86 360.543v-4m0-341.603v4" class="B C D G K"/><g class="J"><use xlink:href="#A" x="67.728" y="376.698"/><path d="M56.02 371.05h10.016v1.262H56.02v-1.262"/></g><path d="M134.527 360.543v-4m0-341.603v4" class="B C D G K"/><g class="J"><use xlink:href="#B" x="137.583" y="376.698"/><path d="M125.87 371.05h10.016v1.262H125.87v-1.262"/></g><path d="M204.195 360.543v-4m0-341.603v4" class="B C D G K"/><g class="J"><use xlink:href="#C" x="207.446" y="376.698"/><path d="M195.734 371.05h10.016v1.262h-10.016v-1.262"/></g><path d="M273.863 360.543v-4m0-341.603v4" class="B C D G K"/><g class="J"><use xlink:href="#D" x="277.465" y="376.698"/><path d="M265.754 371.05h10.016v1.262h-10.016v-1.262"/></g><path d="M343.53 360.543v-4m0-341.603v4" class="B C D G K"/><use xlink:href="#E" x="339.499" y="376.698" class="J"/><path d="M413.2 360.543v-4m0-341.603v4" class="B C D G K"/><use xlink:href="#D" x="410.222" y="376.698" class="J"/><path d="M482.867 360.543v-4m0-341.603v4" class="B C D G K"/><g class="J"><use xlink:href="#C" x="479.108" y="376.698"/><use xlink:href="#I" x="276.994" y="400.073"/></g><path d="M59.793 360.543h4m442.402 0h-4" class="B C D G K"/><g class="J"><use xlink:href="#E" x="32.45" y="364.956"/><use xlink:href="#F" x="42.626" y="364.956"/><use xlink:href="#E" x="47.714" y="364.956"/></g><path d="M59.793 291.422h4m442.402 0h-4" class="B C D G K"/><g class="J"><use xlink:href="#E" x="32.966" y="295.836"/><use xlink:href="#F" x="43.142" y="295.836"/><use xlink:href="#C" x="48.23" y="295.836"/></g><path d="M59.793 222.3h4m442.402 0h-4" class="B C D G K"/><g class="J"><use xlink:href="#E" x="32.2" y="226.716"/><use xlink:href="#F" x="42.376" y="226.716"/><use xlink:href="#A" x="47.464" y="226.716"/></g><path d="M59.793 153.184h4m442.402 0h-4" class="B C D G K"/><g class="J"><use xlink:href="#E" x="32.403" y="157.596"/><use xlink:href="#F" x="42.579" y="157.596"/><use xlink:href="#G" x="47.667" y="157.596"/></g><path d="M59.793 84.063h4m442.402 0h-4" class="B C D G K"/><g class="J"><use xlink:href="#E" x="32.466" y="88.476"/><use xlink:href="#F" x="42.642" y="88.476"/><use xlink:href="#H" x="47.73" y="88.476"/></g><path d="M59.793 14.94h4m442.402 0h-4" class="B C D G K"/><g class="J"><use xlink:href="#D" x="33.341" y="19.356"/><use xlink:href="#F" x="43.517" y="19.356"/><use xlink:href="#E" x="48.605" y="19.356"/><use xlink:href="#J" x="22.2" y="206.742"/><use xlink:href="#L" x="22.2" y="196.684"/><use xlink:href="#K" x="22.2" y="188.92"/><use xlink:href="#M" x="22.2" y="177.504"/></g><g class="B C D G"><path d="M59.793 14.94h446.402m0 345.603V14.94"/><path d="M59.793 360.543h446.402m-446.402 0V14.94"/></g><path d="M369.473 90.504h127.12v-65.96h-127.12zm0 0" fill="rgb(100%,100%,100%)" class="B C D"/><path d="M382.914 40.504h26.88" stroke-width="2" class="B C G L M"/><g class="J"><use xlink:href="#N" x="430.914" y="46.613"/><use xlink:href="#P" x="440.564" y="46.613"/><use xlink:href="#O" x="448.012" y="46.613"/><use xlink:href="#Q" x="458.964" y="46.613"/></g><path d="M377.152 76.82h38.402V63.383h-38.402zm0 0" class="B C D E F"/><g class="J"><use xlink:href="#N" x="430.914" y="76.213"/><use xlink:href="#R" x="440.564" y="81.111"/><use xlink:href="#S" x="448.02" y="81.111"/><use xlink:href="#T" x="451.739" y="81.111"/><use xlink:href="#U" x="457.031" y="81.111"/><use xlink:href="#P" x="462.245" y="76.213"/><use xlink:href="#O" x="469.693" y="76.213"/><use xlink:href="#Q" x="480.646" y="76.213"/></g></svg>